<?xml version="1.0" encoding="UTF-8" standalone="no"?>
<!-- Created with Inkscape (http://www.inkscape.org/) -->

<svg
   xmlns:dc="http://purl.org/dc/elements/1.1/"
   xmlns:cc="http://creativecommons.org/ns#"
   xmlns:rdf="http://www.w3.org/1999/02/22-rdf-syntax-ns#"
   xmlns:svg="http://www.w3.org/2000/svg"
   xmlns="http://www.w3.org/2000/svg"
   xmlns:sodipodi="http://sodipodi.sourceforge.net/DTD/sodipodi-0.dtd"
   xmlns:inkscape="http://www.inkscape.org/namespaces/inkscape"
   width="94.343887mm"
   height="94.34343mm"
   viewBox="0 0 94.343881 94.343431"
   version="1.1"
   id="svg4829"
   inkscape:version="0.92.3 (2405546, 2018-03-11)"
   sodipodi:docname="catalogue.svg"
   inkscape:export-filename="E:\Google Drive\Telespazio\EODHP\workspaces.png"
   inkscape:export-xdpi="84.209999"
   inkscape:export-ydpi="84.209999">
  <defs
     id="defs4823">
    <inkscape:path-effect
       effect="bspline"
       id="path-effect4892"
       is_visible="true"
       weight="33.333333"
       steps="2"
       helper_size="0"
       apply_no_weight="true"
       apply_with_weight="true"
       only_selected="false" />
    <inkscape:path-effect
       effect="bspline"
       id="path-effect4896"
       is_visible="true"
       weight="33.333333"
       steps="2"
       helper_size="0"
       apply_no_weight="true"
       apply_with_weight="true"
       only_selected="false" />
    <inkscape:path-effect
       effect="bspline"
       id="path-effect4900"
       is_visible="true"
       weight="33.333333"
       steps="2"
       helper_size="0"
       apply_no_weight="true"
       apply_with_weight="true"
       only_selected="false" />
    <inkscape:path-effect
       effect="bspline"
       id="path-effect4904"
       is_visible="true"
       weight="33.333333"
       steps="2"
       helper_size="0"
       apply_no_weight="true"
       apply_with_weight="true"
       only_selected="false" />
    <inkscape:path-effect
       effect="bspline"
       id="path-effect4520"
       is_visible="true"
       weight="33.333333"
       steps="2"
       helper_size="0"
       apply_no_weight="true"
       apply_with_weight="true"
       only_selected="false" />
    <inkscape:path-effect
       effect="bspline"
       id="path-effect4520-4"
       is_visible="true"
       weight="33.333333"
       steps="2"
       helper_size="0"
       apply_no_weight="true"
       apply_with_weight="true"
       only_selected="false" />
    <inkscape:path-effect
       effect="bspline"
       id="path-effect4542"
       is_visible="true"
       weight="33.333333"
       steps="2"
       helper_size="0"
       apply_no_weight="true"
       apply_with_weight="true"
       only_selected="false" />
    <inkscape:path-effect
       effect="bspline"
       id="path-effect4542-8"
       is_visible="true"
       weight="33.333333"
       steps="2"
       helper_size="0"
       apply_no_weight="true"
       apply_with_weight="true"
       only_selected="false" />
    <inkscape:path-effect
       effect="bspline"
       id="path-effect4520-9"
       is_visible="true"
       weight="33.333333"
       steps="2"
       helper_size="0"
       apply_no_weight="true"
       apply_with_weight="true"
       only_selected="false" />
    <inkscape:path-effect
       effect="bspline"
       id="path-effect4520-4-0"
       is_visible="true"
       weight="33.333333"
       steps="2"
       helper_size="0"
       apply_no_weight="true"
       apply_with_weight="true"
       only_selected="false" />
    <inkscape:path-effect
       effect="bspline"
       id="path-effect4542-7"
       is_visible="true"
       weight="33.333333"
       steps="2"
       helper_size="0"
       apply_no_weight="true"
       apply_with_weight="true"
       only_selected="false" />
    <inkscape:path-effect
       effect="bspline"
       id="path-effect4542-8-3"
       is_visible="true"
       weight="33.333333"
       steps="2"
       helper_size="0"
       apply_no_weight="true"
       apply_with_weight="true"
       only_selected="false" />
    <inkscape:path-effect
       effect="bspline"
       id="path-effect4542-7-9"
       is_visible="true"
       weight="33.333333"
       steps="2"
       helper_size="0"
       apply_no_weight="true"
       apply_with_weight="true"
       only_selected="false" />
    <inkscape:path-effect
       effect="bspline"
       id="path-effect4542-7-9-9"
       is_visible="true"
       weight="33.333333"
       steps="2"
       helper_size="0"
       apply_no_weight="true"
       apply_with_weight="true"
       only_selected="false" />
    <inkscape:path-effect
       effect="bspline"
       id="path-effect4520-4-8"
       is_visible="true"
       weight="33.333333"
       steps="2"
       helper_size="0"
       apply_no_weight="true"
       apply_with_weight="true"
       only_selected="false" />
    <inkscape:path-effect
       effect="bspline"
       id="path-effect4542-7-9-2"
       is_visible="true"
       weight="33.333333"
       steps="2"
       helper_size="0"
       apply_no_weight="true"
       apply_with_weight="true"
       only_selected="false" />
    <inkscape:path-effect
       effect="bspline"
       id="path-effect4542-7-9-9-1"
       is_visible="true"
       weight="33.333333"
       steps="2"
       helper_size="0"
       apply_no_weight="true"
       apply_with_weight="true"
       only_selected="false" />
  </defs>
  <sodipodi:namedview
     id="base"
     pagecolor="#ffffff"
     bordercolor="#666666"
     borderopacity="1.0"
     inkscape:pageopacity="0.0"
     inkscape:pageshadow="2"
     inkscape:zoom="0.175"
     inkscape:cx="2138.5332"
     inkscape:cy="12.421406"
     inkscape:document-units="mm"
     inkscape:current-layer="layer1"
     showgrid="false"
     fit-margin-top="0"
     fit-margin-left="0"
     fit-margin-right="0"
     fit-margin-bottom="0"
     inkscape:window-width="1920"
     inkscape:window-height="1057"
     inkscape:window-x="1432"
     inkscape:window-y="-8"
     inkscape:window-maximized="1" />
  <metadata
     id="metadata4826">
    <rdf:RDF>
      <cc:Work
         rdf:about="">
        <dc:format>image/svg+xml</dc:format>
        <dc:type
           rdf:resource="http://purl.org/dc/dcmitype/StillImage" />
        <dc:title></dc:title>
      </cc:Work>
    </rdf:RDF>
  </metadata>
  <g
     inkscape:label="Layer 1"
     inkscape:groupmode="layer"
     id="layer1"
     transform="translate(469.04148,-181.35503)">
    <path
       style="fill:#000000;stroke-width:0.08232273"
       d="m -426.29635,275.4862 c -0.76696,-0.38219 -1.16585,-1.04404 -1.1688,-1.93936 -0.001,-0.44028 0.0428,-0.63167 0.22809,-0.98636 0.25696,-0.49188 0.76417,-0.92646 1.2334,-1.05677 0.2079,-0.0577 7.8282,-0.0852 23.66572,-0.0857 l 23.35907,-5.3e-4 7.9e-4,-23.35906 c 0,-15.83751 0.0279,-23.45782 0.0856,-23.66573 0.13031,-0.46922 0.56487,-0.97642 1.05676,-1.23339 0.35392,-0.18489 0.54792,-0.2299 0.99077,-0.2299 0.91358,0 1.61703,0.45028 1.99345,1.276 0.14418,0.31631 0.15017,1.30672 0.15191,25.11286 l 0.002,24.78355 -0.21222,0.42585 c -0.23571,0.47303 -0.56843,0.79108 -1.06379,1.0169 -0.31629,0.14418 -1.30673,0.15016 -25.11284,0.1519 l -24.78356,0.002 -0.42585,-0.21221 z m -10.19878,-10.48248 c -0.73292,-0.18555 -1.39303,-0.81371 -1.58231,-1.50571 -0.0734,-0.26833 -0.0911,-6.32013 -0.0735,-25.05064 l 0.0232,-24.69682 0.17801,-0.32928 c 0.20984,-0.38819 0.61346,-0.78529 1.01566,-0.99924 0.27888,-0.14836 1.0808,-0.15404 24.98495,-0.17652 18.73051,-0.0176 24.7823,1.7e-4 25.05064,0.0736 0.77083,0.21083 1.42681,0.98183 1.54085,1.81099 0.11963,0.8698 -0.41397,1.81173 -1.26337,2.23017 l -0.38433,0.18931 -23.39939,0.0214 -23.39939,0.0214 -0.0215,23.39938 -0.0215,23.39938 -0.19003,0.38581 c -0.21339,0.4332 -0.72322,0.93254 -1.12241,1.09936 -0.35103,0.14665 -1.01099,0.20961 -1.33572,0.12741 z m 28.41516,-0.4753 c -4.1036,-0.3581 -8.17501,-2.00446 -11.36053,-4.59388 -0.85366,-0.69392 -2.43252,-2.28882 -3.09775,-3.12919 -2.62055,-3.31059 -4.21217,-7.47659 -4.43465,-11.60751 -0.19321,-3.58741 0.48092,-6.97791 2.01909,-10.15506 0.68364,-1.41205 1.2166,-2.29025 2.11227,-3.48049 3.36282,-4.46878 8.33235,-7.32082 14.06183,-8.07015 1.16114,-0.15184 3.86864,-0.12792 5.06285,0.0448 2.32908,0.33675 4.28568,0.93547 6.33886,1.93967 4.18406,2.04643 7.46944,5.31901 9.46777,9.43094 1.43777,2.95848 2.09722,5.81882 2.09722,9.09667 0,2.30476 -0.30135,4.17602 -1.0304,6.39829 -1.02917,3.1371 -2.65701,5.77805 -5.01481,8.13584 -3.41553,3.41554 -7.79047,5.48539 -12.59325,5.95806 -0.8306,0.0817 -2.85441,0.0996 -3.6285,0.0321 z m 4.05885,-3.85813 c 1.10852,-0.16419 2.00316,-0.38217 2.04799,-0.499 0.0208,-0.0541 -0.0395,-0.34853 -0.134,-0.65434 -0.44977,-1.45615 -0.66098,-3.55289 -0.50404,-5.00348 0.48322,-4.46655 3.16657,-7.49342 7.39744,-8.34443 0.98079,-0.19727 3.50895,-0.1954 4.65963,0.003 0.44788,0.0774 0.83029,0.12478 0.8498,0.10527 0.0195,-0.0195 0.0765,-0.543 0.12663,-1.16334 0.30414,-3.76211 -0.86218,-7.82401 -3.17583,-11.06048 l -0.49245,-0.68888 -0.26236,0.73003 c -0.60257,1.67676 -1.40729,2.9589 -2.52423,4.02181 -0.59232,0.56366 -0.89169,0.77533 -1.57357,1.11253 -1.50201,0.7428 -2.59575,0.81942 -4.73446,0.33167 -0.60137,-0.13715 -1.23114,-0.24918 -1.39948,-0.24894 -0.8503,0.001 -1.68578,1.07145 -2.18464,2.79862 -0.11117,0.38483 -0.33809,1.45909 -0.50434,2.38728 -0.52826,2.94954 -0.9761,4.37672 -1.72864,5.5087 -1.79534,2.70057 -5.27725,2.49496 -7.61735,-0.44983 -0.9242,-1.163 -1.36099,-2.13342 -2.18609,-4.85689 -0.76475,-2.52422 -1.28657,-3.55918 -2.13416,-4.23277 -0.60998,-0.48474 -0.91337,-0.4296 -1.43047,0.25998 -0.76223,1.0165 -1.39407,2.58815 -1.59004,3.95514 -0.23714,1.65423 0.45288,4.4829 1.70212,6.97775 2.55488,5.10234 7.78523,8.61871 13.5882,9.13537 1.0051,0.0895 2.74021,0.0323 3.80434,-0.12524 z m 6.72269,-2.48648 c 2.25583,-1.45215 4.24511,-3.55355 5.54489,-5.85739 0.50549,-0.89598 1.141,-2.28399 1.07566,-2.34932 -0.10649,-0.10648 -1.31982,-0.22744 -2.29586,-0.22882 -2.70244,-0.003 -4.35434,0.90953 -5.31908,2.94093 -0.15052,0.31694 -0.3351,0.79852 -0.41018,1.07019 -0.17788,0.64352 -0.24815,2.5624 -0.12118,3.30907 0.10062,0.59179 0.33083,1.58816 0.39087,1.69173 0.0447,0.0772 0.39967,-0.10304 1.13488,-0.57639 z m -13.90439,-10.35344 c 0.34159,-0.58288 0.58912,-1.39007 0.8607,-2.80669 0.7508,-3.91648 0.88365,-4.43519 1.43383,-5.59854 1.18624,-2.50825 2.95669,-3.82442 5.14377,-3.82394 0.81999,1.7e-4 1.11489,0.0423 2.35271,0.33677 1.05031,0.2498 1.56626,0.2419 2.12716,-0.0324 0.55276,-0.27044 1.24894,-0.99891 1.66411,-1.74131 0.5656,-1.01139 1.36433,-3.57342 1.18238,-3.79267 -0.16343,-0.19691 -1.41668,-0.96508 -2.33934,-1.43385 -2.36753,-1.20291 -4.92057,-1.80961 -7.61485,-1.80961 -6.04585,0 -11.48371,3.11274 -14.5766,8.34401 -0.26865,0.45439 -0.48846,0.85325 -0.48846,0.88636 0,0.0331 0.19449,0.041 0.4322,0.0176 0.96509,-0.0952 2.21801,0.35223 3.25214,1.16139 1.41982,1.11092 2.35002,2.69686 3.18945,5.4378 0.92873,3.03253 1.2665,3.80754 1.97086,4.52217 0.38891,0.39455 0.86181,0.6991 1.09236,0.70344 0.0546,0.001 0.19759,-0.16563 0.31758,-0.37036 z m -40.75822,1.88771 c -0.49681,-0.17641 -0.90567,-0.55723 -1.1648,-1.08495 l -0.23162,-0.47167 V 223.42348 198.6855 l 0.19428,-0.37045 c 0.26512,-0.50553 0.5534,-0.79845 1.04056,-1.0573 l 0.41161,-0.21871 h 24.73798 24.73798 l 0.46989,0.23075 c 1.60664,0.78896 1.62042,3.00902 0.024,3.87202 l -0.32929,0.17802 -23.48198,0.0211 -23.482,0.0211 -0.0211,23.48198 -0.0211,23.482 -0.17801,0.32929 c -0.53121,0.98265 -1.67114,1.43024 -2.70635,1.06268 z m -15.67943,-15.75351 c -0.32482,-0.11153 -0.55129,-0.26387 -0.80141,-0.53903 -0.65312,-0.71845 -0.59807,1.64549 -0.59807,-25.68455 0,-27.56804 -0.0651,-25.01002 0.65466,-25.72977 0.71975,-0.71974 -1.83827,-0.65466 25.72978,-0.65466 27.56804,0 25.01003,-0.0651 25.72977,0.65466 0.39902,0.399 0.65466,0.9792 0.65466,1.48572 0,0.73705 -0.53047,1.56992 -1.21447,1.90678 l -0.39082,0.19245 -23.44069,0.0212 -23.4407,0.0212 -0.0212,23.4407 -0.0213,23.44068 -0.19246,0.39082 c -0.24643,0.5004 -0.7592,0.93816 -1.2801,1.09285 -0.53315,0.15834 -0.81591,0.15022 -1.36757,-0.0391 z"
       id="path23300"
       inkscape:connector-curvature="0"
       inkscape:export-xdpi="84.209999"
       inkscape:export-ydpi="84.209999" />
  </g>
</svg>
