<?xml version="1.0" encoding="UTF-8" standalone="no"?>
<!-- Created with Inkscape (http://www.inkscape.org/) -->

<svg
   xmlns:dc="http://purl.org/dc/elements/1.1/"
   xmlns:cc="http://creativecommons.org/ns#"
   xmlns:rdf="http://www.w3.org/1999/02/22-rdf-syntax-ns#"
   xmlns:svg="http://www.w3.org/2000/svg"
   xmlns="http://www.w3.org/2000/svg"
   xmlns:sodipodi="http://sodipodi.sourceforge.net/DTD/sodipodi-0.dtd"
   xmlns:inkscape="http://www.inkscape.org/namespaces/inkscape"
   width="83.101631mm"
   height="109.6114mm"
   viewBox="0 0 83.101626 109.61141"
   version="1.1"
   id="svg4829"
   inkscape:version="0.92.3 (2405546, 2018-03-11)"
   sodipodi:docname="notebooks.svg"
   inkscape:export-filename="E:\Google Drive\Telespazio\EODHP\workspaces.png"
   inkscape:export-xdpi="84.209999"
   inkscape:export-ydpi="84.209999">
  <defs
     id="defs4823">
    <inkscape:path-effect
       effect="bspline"
       id="path-effect4892"
       is_visible="true"
       weight="33.333333"
       steps="2"
       helper_size="0"
       apply_no_weight="true"
       apply_with_weight="true"
       only_selected="false" />
    <inkscape:path-effect
       effect="bspline"
       id="path-effect4896"
       is_visible="true"
       weight="33.333333"
       steps="2"
       helper_size="0"
       apply_no_weight="true"
       apply_with_weight="true"
       only_selected="false" />
    <inkscape:path-effect
       effect="bspline"
       id="path-effect4900"
       is_visible="true"
       weight="33.333333"
       steps="2"
       helper_size="0"
       apply_no_weight="true"
       apply_with_weight="true"
       only_selected="false" />
    <inkscape:path-effect
       effect="bspline"
       id="path-effect4904"
       is_visible="true"
       weight="33.333333"
       steps="2"
       helper_size="0"
       apply_no_weight="true"
       apply_with_weight="true"
       only_selected="false" />
    <inkscape:path-effect
       effect="bspline"
       id="path-effect4520"
       is_visible="true"
       weight="33.333333"
       steps="2"
       helper_size="0"
       apply_no_weight="true"
       apply_with_weight="true"
       only_selected="false" />
    <inkscape:path-effect
       effect="bspline"
       id="path-effect4520-4"
       is_visible="true"
       weight="33.333333"
       steps="2"
       helper_size="0"
       apply_no_weight="true"
       apply_with_weight="true"
       only_selected="false" />
    <inkscape:path-effect
       effect="bspline"
       id="path-effect4542"
       is_visible="true"
       weight="33.333333"
       steps="2"
       helper_size="0"
       apply_no_weight="true"
       apply_with_weight="true"
       only_selected="false" />
    <inkscape:path-effect
       effect="bspline"
       id="path-effect4542-8"
       is_visible="true"
       weight="33.333333"
       steps="2"
       helper_size="0"
       apply_no_weight="true"
       apply_with_weight="true"
       only_selected="false" />
    <inkscape:path-effect
       effect="bspline"
       id="path-effect4520-9"
       is_visible="true"
       weight="33.333333"
       steps="2"
       helper_size="0"
       apply_no_weight="true"
       apply_with_weight="true"
       only_selected="false" />
    <inkscape:path-effect
       effect="bspline"
       id="path-effect4520-4-0"
       is_visible="true"
       weight="33.333333"
       steps="2"
       helper_size="0"
       apply_no_weight="true"
       apply_with_weight="true"
       only_selected="false" />
    <inkscape:path-effect
       effect="bspline"
       id="path-effect4542-7"
       is_visible="true"
       weight="33.333333"
       steps="2"
       helper_size="0"
       apply_no_weight="true"
       apply_with_weight="true"
       only_selected="false" />
    <inkscape:path-effect
       effect="bspline"
       id="path-effect4542-8-3"
       is_visible="true"
       weight="33.333333"
       steps="2"
       helper_size="0"
       apply_no_weight="true"
       apply_with_weight="true"
       only_selected="false" />
    <inkscape:path-effect
       effect="bspline"
       id="path-effect4542-7-9"
       is_visible="true"
       weight="33.333333"
       steps="2"
       helper_size="0"
       apply_no_weight="true"
       apply_with_weight="true"
       only_selected="false" />
    <inkscape:path-effect
       effect="bspline"
       id="path-effect4542-7-9-9"
       is_visible="true"
       weight="33.333333"
       steps="2"
       helper_size="0"
       apply_no_weight="true"
       apply_with_weight="true"
       only_selected="false" />
    <inkscape:path-effect
       effect="bspline"
       id="path-effect4520-4-8"
       is_visible="true"
       weight="33.333333"
       steps="2"
       helper_size="0"
       apply_no_weight="true"
       apply_with_weight="true"
       only_selected="false" />
    <inkscape:path-effect
       effect="bspline"
       id="path-effect4542-7-9-2"
       is_visible="true"
       weight="33.333333"
       steps="2"
       helper_size="0"
       apply_no_weight="true"
       apply_with_weight="true"
       only_selected="false" />
    <inkscape:path-effect
       effect="bspline"
       id="path-effect4542-7-9-9-1"
       is_visible="true"
       weight="33.333333"
       steps="2"
       helper_size="0"
       apply_no_weight="true"
       apply_with_weight="true"
       only_selected="false" />
  </defs>
  <sodipodi:namedview
     id="base"
     pagecolor="#ffffff"
     bordercolor="#666666"
     borderopacity="1.0"
     inkscape:pageopacity="0.0"
     inkscape:pageshadow="2"
     inkscape:zoom="0.175"
     inkscape:cx="1124.1471"
     inkscape:cy="168.13251"
     inkscape:document-units="mm"
     inkscape:current-layer="layer1"
     showgrid="false"
     fit-margin-top="0"
     fit-margin-left="0"
     fit-margin-right="0"
     fit-margin-bottom="0"
     inkscape:window-width="1920"
     inkscape:window-height="1057"
     inkscape:window-x="1432"
     inkscape:window-y="-8"
     inkscape:window-maximized="1" />
  <metadata
     id="metadata4826">
    <rdf:RDF>
      <cc:Work
         rdf:about="">
        <dc:format>image/svg+xml</dc:format>
        <dc:type
           rdf:resource="http://purl.org/dc/dcmitype/StillImage" />
        <dc:title></dc:title>
      </cc:Work>
    </rdf:RDF>
  </metadata>
  <g
     inkscape:label="Layer 1"
     inkscape:groupmode="layer"
     id="layer1"
     transform="translate(200.65182,-207.28561)">
    <path
       style="fill:#000000;stroke-width:0.21418461"
       d="m -191.81793,316.63116 c -1.38225,-0.45048 -3.01235,-1.58847 -3.9198,-2.73645 -3.34743,-4.23483 -1.89523,-10.35841 3.00874,-12.68707 1.23711,-0.58745 1.60819,-0.6611 3.33097,-0.6611 1.8112,0 2.04651,0.0533 3.57602,0.80918 1.88645,0.93233 2.90943,1.97937 3.83389,3.92404 1.94559,4.09272 0.10415,9.04889 -4.07545,10.96897 -1.46225,0.67175 -4.28997,0.85967 -5.75437,0.38243 z m 28.62659,-13.7319 c -12.13895,-1.65695 -23.00354,-8.52503 -29.81062,-18.84493 -1.40121,-2.12432 -3.3608,-5.89663 -4.14704,-7.98328 -0.27843,-0.73893 -0.50624,-1.39133 -0.50624,-1.44974 0,-0.0584 0.64431,0.57677 1.43179,1.41154 2.9127,3.0876 6.82741,5.85037 11.52638,8.13462 5.17704,2.51661 9.81062,3.97154 15.97321,5.01552 15.37063,2.60384 31.92245,-0.38487 43.24884,-7.80933 2.44331,-1.60159 3.81165,-2.71422 6.15781,-5.0071 0.97186,-0.94979 1.76702,-1.66289 1.76702,-1.58468 0,0.5155 -2.36888,5.59148 -3.47825,7.45309 -6.83677,11.47267 -18.10613,18.94389 -31.17708,20.66934 -2.90893,0.384 -8.15322,0.38159 -10.98582,-0.004 z m -34.4639,-58.02405 c 0,-0.36777 1.63127,-4.06169 2.59347,-5.87281 6.41005,-12.06534 18.08428,-20.26711 31.63578,-22.22583 3.07478,-0.44443 8.68963,-0.43573 11.71335,0.0181 12.96226,1.94568 24.05864,9.39508 30.63218,20.56447 1.36921,2.3265 3.52931,6.96292 3.53016,7.57713 6e-5,0.0428 -1.11693,-0.99611 -2.4822,-2.3086 -6.88004,-6.61408 -16.60864,-10.8507 -28.89573,-12.58357 -3.88518,-0.54793 -13.6293,-0.54789 -17.34896,8e-5 -12.52905,1.84575 -22.15172,6.04112 -28.94056,12.61774 -1.34062,1.29871 -2.43749,2.29468 -2.43749,2.21327 z m 0.37784,-17.68598 c -1.98809,-0.59863 -3.37102,-2.46711 -3.37441,-4.55922 -0.003,-2.02694 0.89453,-3.57284 2.57817,-4.43919 1.21171,-0.6235 2.18213,-0.71887 3.47894,-0.34188 2.27912,0.66256 3.83003,3.06474 3.48107,5.39178 -0.41662,2.77822 -3.49697,4.7515 -6.16377,3.94851 z m 68.64842,-7.19631 c -1.28822,-0.47437 -2.93187,-2.03656 -3.61776,-3.43848 -0.77412,-1.58225 -0.80844,-3.71522 -0.0866,-5.38074 0.63529,-1.46578 2.39751,-3.09762 3.87515,-3.58842 1.48655,-0.49374 3.62857,-0.36501 4.91082,0.29515 2.28291,1.17536 3.47819,3.04536 3.60486,5.63975 0.0698,1.42852 0.005,1.81065 -0.48874,2.89148 -1.13068,2.47439 -2.99073,3.73264 -5.68634,3.84661 -1.07466,0.0454 -1.90595,-0.0425 -2.5114,-0.26535 z"
       id="path4740"
       inkscape:connector-curvature="0"
       inkscape:export-xdpi="84.209999"
       inkscape:export-ydpi="84.209999" />
  </g>
</svg>
