<?xml version="1.0" encoding="UTF-8" standalone="no"?>
<!-- Generator: Adobe Illustrator 27.9.1, SVG Export Plug-In . SVG Version: 6.00 Build 0)  -->

<svg
   version="1.1"
   x="0px"
   y="0px"
   viewBox="0 0 168.8 168.8"
   xml:space="preserve"
   id="svg136"
   sodipodi:docname="favicon.svg"
   width="168.8"
   height="168.8"
   inkscape:version="1.3.1 (9b9bdc1480, 2023-11-25, custom)"
   xmlns:inkscape="http://www.inkscape.org/namespaces/inkscape"
   xmlns:sodipodi="http://sodipodi.sourceforge.net/DTD/sodipodi-0.dtd"
   xmlns:xlink="http://www.w3.org/1999/xlink"
   xmlns="http://www.w3.org/2000/svg"
   xmlns:svg="http://www.w3.org/2000/svg"><defs
   id="defs136" /><sodipodi:namedview
   id="namedview136"
   pagecolor="#ffffff"
   bordercolor="#000000"
   borderopacity="0.25"
   inkscape:showpageshadow="2"
   inkscape:pageopacity="0.0"
   inkscape:pagecheckerboard="0"
   inkscape:deskcolor="#d1d1d1"
   inkscape:zoom="2.9744605"
   inkscape:cx="146.5812"
   inkscape:cy="84.553148"
   inkscape:window-width="1920"
   inkscape:window-height="995"
   inkscape:window-x="1920"
   inkscape:window-y="0"
   inkscape:window-maximized="1"
   inkscape:current-layer="g76" />
<style
   type="text/css"
   id="style1">
	.st0{fill:#637189;}
	.st1{fill:#2A3559;}
	.st2{fill:#4C72BA;}
	.st3{clip-path:url(#SVGID_00000128471188759365025630000011547456509520731533_);}
	.st4{clip-path:url(#SVGID_00000142859025208614533800000005717304917129333409_);}
	.st5{fill-rule:evenodd;clip-rule:evenodd;fill:#BDCFEB;}
	.st6{fill:#FFFFFF;}
	.st7{fill:#E4E1DF;}
	.st8{fill:#BCCEEA;}
	.st9{fill:#A29D9B;}
	.st10{fill:#BCCDE9;}
</style>
<g
   id="Layer_1">
	
	
	
	
	
	
	<g
   id="g18">
		<g
   transform="translate(221.77399,161.10416)"
   id="g17">
		</g>
	</g>
	
	
	
	
	
	
	
	
	
	
	
	
	
	
	
	<g
   id="g65">
		<g
   transform="translate(205.08637,214.63853)"
   id="g64">
		</g>
	</g>
	
	
	
	<g
   id="g76">
		<defs
   id="defs74"><rect
     id="SVGID_1_"
     x="13.9"
     y="47.900002"
     width="105.9"
     height="105.3" /></defs>
		<clipPath
   id="SVGID_00000165217351465156361840000009188897441047815605_">
			<use
   xlink:href="#SVGID_1_"
   style="overflow:visible"
   id="use74" />
		</clipPath>
		<g
   clip-path="url(#SVGID_00000165217351465156361840000009188897441047815605_)"
   id="g75"
   transform="matrix(1.2002224,0,0,1.2002224,-1.2718546,-14.206171)">
			<path
   class="st1"
   d="m 119.5,100.1 c 0,1.7 -0.1,3.4 -0.2,5.1 -0.2,1.7 -0.4,3.4 -0.8,5 -0.3,1.7 -0.8,3.3 -1.3,4.9 -0.5,1.6 -1.1,3.2 -1.7,4.8 -0.7,1.6 -1.4,3.1 -2.2,4.6 -0.8,1.5 -1.7,3 -2.6,4.4 -1,1.4 -2,2.8 -3.1,4.1 -1.1,1.3 -2.2,2.6 -3.5,3.8 -1.2,1.2 -2.5,2.3 -3.8,3.4 -1.3,1.1 -2.7,2.1 -4.1,3 -1.4,0.9 -2.9,1.8 -4.4,2.6 -1.5,0.8 -3.1,1.5 -4.7,2.2 -1.6,0.7 -3.2,1.2 -4.8,1.7 -1.6,0.5 -3.3,0.9 -5,1.2 -1.7,0.3 -3.4,0.6 -5.1,0.8 -1.7,0.2 -3.4,0.2 -5.1,0.2 -1.7,0 -3.4,-0.1 -5.1,-0.2 -1.7,-0.2 -3.4,-0.4 -5.1,-0.8 -1.7,-0.3 -3.3,-0.7 -5,-1.2 -1.6,-0.5 -3.3,-1.1 -4.8,-1.7 -1.6,-0.7 -3.1,-1.4 -4.7,-2.2 -1.5,-0.8 -3,-1.7 -4.4,-2.6 -1.4,-0.9 -2.8,-2 -4.1,-3 -1.3,-1.1 -2.6,-2.2 -3.8,-3.4 -1.2,-1.2 -2.4,-2.5 -3.5,-3.8 -1.1,-1.3 -2.1,-2.7 -3.1,-4.1 -1,-1.4 -1.8,-2.9 -2.7,-4.4 -0.8,-1.5 -1.5,-3 -2.2,-4.6 -0.7,-1.6 -1.2,-3.2 -1.7,-4.8 -0.5,-1.6 -0.9,-3.3 -1.2,-4.9 -0.3,-1.7 -0.6,-3.3 -0.8,-5 -0.2,-1.7 -0.3,-3.4 -0.3,-5.1 0,-1.7 0.1,-3.4 0.3,-5.1 0.2,-1.7 0.4,-3.4 0.8,-5 0.3,-1.7 0.8,-3.3 1.2,-4.9 0.5,-1.6 1.1,-3.2 1.7,-4.8 0.7,-1.6 1.4,-3.1 2.2,-4.6 0.8,-1.5 1.7,-3 2.7,-4.4 1,-1.4 2,-2.8 3.1,-4.1 1.1,-1.3 2.2,-2.6 3.5,-3.8 1.2,-1.2 2.5,-2.3 3.8,-3.4 1.3,-1.1 2.7,-2.1 4.1,-3 1.4,-0.9 2.9,-1.8 4.4,-2.6 1.5,-0.8 3.1,-1.5 4.7,-2.2 1.6,-0.7 3.2,-1.2 4.8,-1.7 1.6,-0.5 3.3,-0.9 5,-1.2 1.7,-0.3 3.4,-0.6 5.1,-0.8 1.7,-0.2 3.4,-0.2 5.1,-0.2 1.7,0 3.4,0.1 5.1,0.2 1.7,0.2 3.4,0.4 5.1,0.8 1.7,0.3 3.3,0.7 5,1.2 1.6,0.5 3.3,1.1 4.8,1.7 1.6,0.7 3.1,1.4 4.7,2.2 1.5,0.8 3,1.7 4.4,2.6 1.4,0.9 2.8,2 4.1,3 1.3,1 2.6,2.2 3.8,3.4 1.2,1.2 2.4,2.5 3.5,3.8 1.1,1.3 2.1,2.7 3.1,4.1 1,1.4 1.8,2.9 2.6,4.4 0.8,1.5 1.5,3 2.2,4.6 0.7,1.6 1.2,3.2 1.7,4.8 0.5,1.6 0.9,3.3 1.3,4.9 0.3,1.7 0.6,3.3 0.8,5 0.2,1.7 0.2,3.4 0.2,5.1 z"
   id="path74" />
		</g>
	</g>
	<g
   id="g78"
   transform="matrix(1.2002224,0,0,1.2002224,-1.2718546,-14.206171)">
		<defs
   id="defs76"><rect
     id="SVGID_00000154399494367403902080000008033214233269717436_"
     x="13.9"
     y="47.900002"
     width="105.9"
     height="104" /></defs>
		<clipPath
   id="SVGID_00000060709579481434398630000003409610298390768037_">
			<use
   xlink:href="#SVGID_00000154399494367403902080000008033214233269717436_"
   style="overflow:visible"
   id="use76" />
		</clipPath>
		<g
   clip-path="url(#SVGID_00000060709579481434398630000003409610298390768037_)"
   id="g77">
			<path
   class="st5"
   d="m 52.2,80.4 c 4.5,1.4 -5.1,6 -2,2.9 0.8,-1 -0.3,-2.3 1.7,-2.5 L 52,80.6 Z m -8.3,-18 c 3.2,-1 3.5,-2.6 6.8,-4.1 0.7,-1.6 2.2,-2.2 3.5,-3 -2.9,0.5 -0.6,-2.2 -3.6,0.1 1.3,-2.2 -4,-0.7 -0.3,-0.8 -1.8,2.1 -5.7,5.4 -8.7,7.1 -0.5,-0.4 3.7,-3.9 0,-0.9 -1.2,2.1 -4.8,2.8 -2.3,0.3 1.8,-0.9 1.1,-3.1 2.5,-1.9 2.3,-1 1.8,-1.2 4,-2.4 -1.9,-0.4 -4.3,1.6 -6.3,2.1 5.2,-4.2 -3.3,-0.7 -4.3,1.8 -1.9,1.9 -6.4,5.8 -2,2.4 1.1,0.6 6.6,-5.9 6,-2.5 -1.2,1.1 -1.7,2.1 -3.1,2.8 -2.3,2.4 4.6,-2.2 0.3,1.3 -2.8,1.9 -2.4,5.5 -5.2,7.3 -1.8,0.6 -2.3,5.3 -2.8,3.6 -2.5,-2.3 5.2,-4.3 0.8,-4.1 -0.3,-0.9 -0.6,1.3 -1.5,0 -1.2,1.6 0.3,3.8 -2.1,3.4 -2.2,0 2.9,-2.5 -1.1,-1.8 -0.5,-0.2 -1.5,1.5 -2.5,2.8 -2.9,2.1 -3.8,5.3 -4.9,8.8 -3.2,10.3 -3.1,24.1 1,33.8 9.1,21.4 28.7,34.3 51.2,33.3 -2.1,-0.9 -6.9,-3.9 -2.5,-5.8 -2.5,-1.8 -1.3,-4.4 -4.8,-6.1 2.3,-2 0.5,-4.8 -2.4,-4.2 -2.5,0.4 -3.9,-2.7 -6.6,-1.4 -3.7,0.2 -7.8,-1.1 -11.2,-2.8 -3.2,-3.1 -6.7,-6.9 -6.5,-11.2 0.8,-2.3 1.4,-3.8 0.8,-6 2.7,-2.4 3.9,-6.2 7.5,-6.1 -0.7,-3.1 8,-6.6 2.2,-6.8 -0.1,-3 0.3,-3.9 1.5,-6.8 -0.4,-5.1 5.2,1.3 6.5,-1.6 2.7,-3 -4.8,-6.4 1.1,-5.5 2.2,0 3,-2 0.1,-1.1 -2.3,-0.2 -4.3,0.4 -1.4,-1.5 -2.3,-0.7 2.7,-1.6 0.2,-3.2 -0.1,-0.9 1,-1.3 -0.2,-1.2 -0.6,-0.9 1.8,-2 -0.3,-2.5 1.1,-3.2 1,-0.6 1.7,-1 0.9,-0.2 2,1 0.6,2.3 1.3,2.3 2.9,4.9 2.1,6.5 1.3,-1.1 3.9,-1.9 4.6,-2.9 -1.9,-3.7 3.9,-5.4 1.3,-2.1 -1.1,2.4 1.9,2.1 0,0.6 1.6,0.4 2.6,-1.3 1.2,-3 -0.2,-2.4 -3,2.1 -3.6,-0.8 -1.8,-4.3 4.8,-5 5.5,-8.7 -1.6,0.3 3.7,-4.9 6,-2.4 2.5,0.1 7.5,3.2 2.3,2.6 0.2,-0.2 0.8,2.8 2.6,2.4 2,0.5 -1.4,-1.4 0.4,-1.3 -0.4,-1.4 1.3,-2.4 -0.5,-3.6 3,-0.4 0.5,1.2 2.5,2.1 2.1,1.4 -1.2,-4.8 1.8,-2.4 3.8,-4 -4.5,-0.3 -4.6,-3.9 -1.7,-2.8 1,-4.9 1,-1 0.7,2.8 4,2 6.2,2.4 1,0.2 -5.2,-2.7 -3.2,-3.6 1.4,-0.5 2,0 1.1,-0.9 -0.6,-1 -1.8,-2.3 -2.4,-3.3 -3.8,-2.1 4.6,0 1.8,-2.2 -1.3,0 1,-2.2 -2.2,-1.7 -2.2,1.5 -6.4,-2.4 -2,-0.2 3.4,0.3 -3.5,-2.9 -5.2,-3.1 -5.4,-0.6 -9.6,-0.1 -14.9,0.6 -2.9,0.4 -2.4,2.4 -0.2,2 -0.6,1.7 -3.5,1.2 -0.4,1.4 -2,0.8 4,1.1 1.3,2.8 1.6,0.8 4.2,2 2.4,2.3 3.5,-0.1 -2.5,2.8 -2.6,4.2 -2.4,0.9 -4.4,3.4 -5.3,2.5 1.8,1.3 -1.7,1.6 -2.6,1.1 -2.3,-0.8 -5.7,1.5 -8,3.1 -4,2.4 -1.2,-5 1.9,-6.4 z m 48.7,81.9 c 1.3,-2.7 3.7,-4.5 6.3,-6.5 3.2,-1.2 -2.2,4.6 -4,5.3 -0.7,0.5 -1.4,1 -2.3,1.2 z m 0.6,-3.8 c -0.3,3.9 -5.9,4 -7.7,6.8 -1.8,0.9 -5.6,3.4 -1.1,1.8 11.6,-4.2 17.7,-10.3 21.5,-14.1 8.5,-8.8 13.9,-22 13.6,-36.5 -0.4,-1.1 -2.4,-10.3 -2.7,-5.9 0,4.7 -0.1,9.3 0.2,13.9 -1.3,6.2 -3.2,-7.2 -3.6,-3.8 -1.4,-0.3 -1.5,-1 -3.2,-1.9 -1.2,1.9 -4,4.2 -5.7,2.8 -1.2,3.6 -4.2,0.5 -5.4,-0.4 -2.9,2.5 4.1,5.2 4.9,3.3 0.9,-2.8 0.4,-2.2 2.1,-1.2 2.2,0.5 0.4,4.8 -0.3,6.7 -1.8,2.5 -2.8,6 -5.8,8 -1.7,2.3 -4,3.5 -4,-0.6 -2.1,-3 -4.7,-3.7 -6.4,-7.1 -0.2,-2.5 -2.3,-3.2 -2.9,-1.7 -1.4,-0.9 2.2,4.1 3,4.8 1.3,3.8 3.8,6.4 7.5,7.5 0.3,5.1 8.2,-7.8 6.2,-1.2 -1.4,5 -5.3,8.5 -8,12.8 -1.4,2 -3.5,4.1 -2.2,6 z m -7.7,-1.3 c 1.7,0.1 3.9,-2.8 1.8,-2.6 -1.4,0.1 -1.4,1.7 -1.8,2.6 z M 66.6,59.6 c 1.4,-2 2.7,0.3 1.3,0.5 1.6,1.8 -1.4,-0.6 -1,2.3 -0.4,-0.2 -2.5,-4.7 -0.3,-2.8 z M 69.8,71 c 0.3,2 -3.7,3.4 -0.3,4.9 -0.3,2.1 -2,5.7 -3.7,5.7 -2.4,1.7 2.9,1.5 3.7,0.2 1.9,0.8 1.5,-0.9 1.9,-1.9 -0.8,-2.4 2.8,0.2 0.8,-2.6 -2.1,1.8 1.3,-2 2.7,-1.4 -0.6,-1.6 -5,2.5 -4.3,-0.8 -2.9,-1.9 4.6,-5.3 -0.8,-4.1 z m 9.7,19.6 c 0.2,1.1 -0.3,3 -1.2,4.4 2.1,2.6 6.4,-2 9.6,0 4,-2.5 -4.7,-6.2 -5.5,-2.2 -1.7,-1.3 1,-3.1 -1.7,-2.7 -0.6,-0.2 -0.6,-1.3 -1.2,0.5 z m 16.2,4.7 c 2.7,1.5 5.6,-1.3 2.3,-3 -1.4,-1.8 -1.8,-3.3 -3.8,-4.1 -1,-0.4 2.1,-4.7 -1.2,-2.7 -2.3,1.1 -1.2,4.2 0.1,5.2 3.3,1.9 2.9,0.7 2.6,4.6 z m -32.9,5.5 c -2.2,1.4 -2,-2 -1.1,-3 -0.2,-1.1 1.8,-4 1.1,-0.7 -0.6,1 0.7,2.5 0,3.7 z M 49.2,102 c 1.5,3.7 8.7,-0.5 12.4,1.5 1.8,-0.7 3,-0.3 2.3,1.7 -2.6,0.9 0.8,2.3 1.7,2.1 2.5,0.3 3.1,2.6 5.9,2.9 2.2,0.6 0.6,-4.9 4.4,-3.1 0.8,1.3 2.6,0.6 4.1,1 2.5,0.9 3.8,-2.2 6.3,-1.8 0.8,-1.9 0.6,-7.6 0.3,-6.7 -1.5,1.3 -3.9,1.4 -5.8,2.4 -1,-0.8 -2,0.9 -2.3,-1.7 -0.7,-1.5 -0.8,-4.1 -3.6,-1.6 -0.8,0.2 2.5,2 1.9,3 -1.7,-1.1 -1.5,-0.2 -1.8,1.3 -1.6,-0.9 -2.8,-5.1 -5,-6.9 -2.4,-1.1 -2.6,-3.4 -4.2,-3.8 -1.3,3.4 5.7,5.7 4.6,6.7 -2.8,-1.7 1.3,3.2 -2.4,3.1 0,2.6 -5,-1.7 -0.6,-0.4 3.2,-1.9 -2.5,-4.1 -3.6,-5.9 -1,-4 -3.6,2 -5.6,-1.3 -0.2,1.8 -4.4,3.1 -4,5.8 -1.5,1.3 -2.8,1.8 -5,1.7 z m 0.7,-32.6 c 0.1,0 1.8,-2.9 1.6,-1.2 4.1,0.5 -0.2,4.4 -2.4,1.8 z"
   id="path76" />
		</g>
	</g>
</g>
<g
   id="Layer_2"
   transform="matrix(1.2002224,0,0,1.2002224,-1.2718546,-14.206171)">
	<path
   class="st6"
   d="m 103,32.9 v 0 c 0,0 -0.1,0 0,0 v 0 c -0.1,0.1 -0.2,0.2 -0.2,0.2 -0.1,0.1 -0.3,0.2 -0.3,0.3 -0.2,0.5 -0.7,0.9 -0.3,1.4 0.2,0.4 0.6,0.7 1,0.8 0,0.1 0.1,0.1 0.1,0.2 -0.5,0.6 -1,1.2 -1.4,1.9 -0.1,0 -0.1,0 -0.2,-0.1 -1.8,-1.1 -3.7,-1.9 -5.7,-2.4 -2.2,-0.6 -4.5,-0.7 -6.8,-0.1 -0.2,0 -0.4,0 -0.4,0.3 0,0.2 0,0.4 0.1,0.6 1.1,2.7 2.5,5.2 4.2,7.6 0.7,1 1.5,1.8 2.2,2.7 -0.4,0.7 -0.8,1.3 -1.2,2 -0.1,0 -0.2,0 -0.3,0 -0.7,0.1 -1.3,0.8 -1.2,1.5 0.1,0.7 0.8,1.3 1.5,1.1 0.8,-0.1 1.2,-0.9 1.1,-1.6 0,-0.1 0,-0.3 0,-0.4 0.5,-0.4 1,-0.9 1.6,-1.3 1.2,1.2 2.6,2.2 4.1,3 1.9,1 3.9,1.6 6.1,1.8 0.6,0.1 1.2,0.1 1.8,0 0.2,-0.7 0.4,-1.4 0.4,-2.1 0.1,-2.2 -0.5,-4.3 -1.6,-6.2 -0.8,-1.5 -1.9,-2.9 -3,-4.2 0.6,-0.6 1.3,-1.1 1.9,-1.8 0.1,0.1 0.3,0.2 0.4,0.3 0.8,0.8 1.3,0.6 2,0 0.9,-0.7 1.7,-1.7 2.5,-2.6 0.6,0.4 1.2,0.8 1.8,1.2 -0.3,0.4 -0.6,0.8 -1,1.2 -0.3,0.3 -0.2,0.4 0.1,0.6 3.6,2.9 7.1,5.8 10.6,8.7 0.2,0.2 0.4,0.2 0.6,-0.1 1.8,-2.2 3.5,-4.5 5.4,-6.6 0.2,-0.3 0.3,-0.4 -0.1,-0.7 -1.3,-1 -2.6,-2.1 -3.8,-3.1 -2.2,-1.8 -4.4,-3.7 -6.6,-5.5 -0.3,-0.2 -0.4,-0.2 -0.6,0.1 -0.5,0.6 -1,1.2 -1.5,1.7 -0.2,0 -0.3,-0.1 -0.4,-0.2 -0.5,-0.3 -1,-0.6 -1.5,-0.9 0.2,-0.3 0.5,-0.6 0.7,-0.9 0.7,-0.9 1.5,-1.7 2.1,-2.7 0.4,-0.1 0.3,-0.4 0.2,-0.6 -0.1,-0.3 -0.4,-0.6 -0.7,-0.7 0,0 -0.1,-0.1 -0.1,-0.1 v 0 c -0.1,-0.1 -0.1,-0.2 -0.2,-0.3 0.1,-0.1 0.2,-0.3 0.4,-0.4 0.2,-0.3 0.4,-0.5 0.2,-0.9 0.1,-0.1 0.1,-0.2 0.2,-0.2 0.6,-0.7 0.6,-1 -0.1,-1.6 -0.3,-0.3 -0.8,-0.5 -1,-0.9 0.3,-0.3 0.6,-0.6 0.8,-1 0.1,-0.1 0.1,-0.3 0,-0.4 -0.1,-0.1 -0.2,0 -0.3,0 -0.3,0.3 -0.7,0.6 -1,0.8 -0.2,0 -0.3,-0.2 -0.5,-0.3 -1.1,-0.8 -1.1,-0.8 -1.9,0.3 -0.3,0 -0.6,0.1 -0.8,0.4 -0.1,0.2 -0.3,0.4 -0.4,0.6 -1,-0.7 -0.9,-0.9 -1.8,0.3 -0.7,0.9 -1.4,1.8 -2.1,2.6 -0.7,-0.7 -1.5,-1.2 -2.3,-1.7 0.4,-0.5 0.9,-1.1 1.3,-1.6 0.2,-0.2 0.2,-0.3 0,-0.5 -3.5,-2.8 -7,-5.7 -10.5,-8.6 -0.5,-0.4 -0.5,-0.4 -1,0.1 -1.8,2.1 -3.4,4.3 -5.2,6.4 -0.4,0.5 -0.4,0.7 -0.2,0.8 3.5,2.9 7,5.9 10.4,8.8 0.2,0.2 0.3,0.2 0.5,-0.1 0.4,-0.5 0.9,-1 1.3,-1.5 0.1,0 0.2,0.1 0.3,0.1 0.7,0.7 1.5,1.2 2.2,1.9 -0.6,0.8 -1.1,1.5 -1.7,2.3 v 0 c 0,0 -0.1,0.1 -0.2,0.3 l 0.1,-0.1 c 0,0 -0.1,0 -0.1,0.1 z"
   id="path78" />
	<path
   class="st1"
   d="m 104.5,40 c 1.1,1.3 2.2,2.6 3,4.2 1,2 1.7,4 1.6,6.2 0,0.7 -0.2,1.4 -0.4,2.1 -0.2,0 -0.4,-0.2 -0.6,-0.3 -1,-0.6 -2,-1.3 -3,-1.9 -1.1,-0.7 -2.2,-1.4 -3.2,-2.1 -1.1,-0.7 -2.1,-1.5 -3.2,-2.3 -0.7,-0.5 -1.2,-1.2 -2,-1.6 -0.2,-0.5 -0.7,-0.8 -1.1,-1.1 -1.8,-1.8 -3.4,-3.9 -5,-5.9 -0.5,-0.7 -1,-1.4 -1.8,-1.8 0,-0.3 0.3,-0.2 0.4,-0.3 2.3,-0.6 4.5,-0.5 6.8,0.1 2,0.5 3.9,1.3 5.7,2.4 0.1,0 0.1,0 0.2,0.1 1,0.6 1.8,1.4 2.6,2.2 z m -7.2,-1.2 c -0.1,0 -0.3,0 -0.6,0.1 -0.4,0.2 -0.5,0.3 -0.2,0.6 0.2,0.3 0.5,0.4 0.8,0.5 0.3,0.1 0.6,0.2 0.8,0.3 1.8,1.1 3.3,2.6 4.6,4.3 0.4,0.4 0.7,0.9 1.2,1.2 0.1,0.1 0.3,0.2 0.5,0.1 0.2,-0.1 0.1,-0.3 0.1,-0.5 0,-1 -0.6,-1.8 -1.3,-2.5 -1.1,-1 -2.2,-2.1 -3.3,-3.2 -0.7,-0.5 -1.5,-0.9 -2.6,-0.9 z"
   id="path79" />
	<path
   class="st1"
   d="m 102.4,28.3 c -0.4,0.5 -0.9,1 -1.3,1.5 -0.2,0.2 -0.3,0.2 -0.5,0.1 C 97.1,27 93.7,24 90.2,21.1 90,21 90,20.8 90.1,20.6 c 1.8,-2.1 3.4,-4.3 5.2,-6.4 0.4,-0.5 0.4,-0.5 1,-0.1 3.5,2.9 7,5.7 10.5,8.6 0.2,0.2 0.2,0.3 0,0.5 -0.4,0.5 -0.9,1.1 -1.3,1.6 -0.2,0.2 -0.4,0.4 -0.6,0.7 -0.7,0.7 -1.3,1.5 -1.9,2.3 -0.2,0.1 -0.4,0.3 -0.6,0.5 z m 0.8,-7.4 c 0,0 0,-0.1 0,-0.1 -0.4,-0.5 -0.9,-0.9 -1.4,-1 -0.5,-0.1 -0.6,0.4 -0.8,0.7 -0.2,0.3 0.1,0.4 0.3,0.5 0.3,0.2 0.6,0.5 1,0.7 0.3,0.1 0.9,-0.3 0.9,-0.8 z m -2.7,-2.2 c 0,0 0,-0.1 -0.1,-0.2 -0.4,-0.4 -0.8,-0.8 -1.4,-1 -0.5,-0.1 -0.7,0.3 -0.8,0.7 -0.2,0.3 0.1,0.4 0.3,0.5 0.3,0.2 0.6,0.4 0.9,0.6 0.5,0.3 1.2,-0.1 1.1,-0.6 z m 4.3,4.8 c 0.4,0 0.6,-0.3 0.8,-0.5 0.1,-0.2 0.1,-0.4 -0.1,-0.5 -0.4,-0.3 -0.8,-0.6 -1.2,-0.9 -0.3,-0.2 -0.6,0 -0.7,0.2 -0.1,0.2 -0.5,0.5 -0.2,0.7 0.4,0.4 0.9,0.7 1.4,1 z M 93.4,22.2 c 0.2,0 0.5,-0.1 0.6,-0.4 0.1,-0.3 0,-0.5 -0.2,-0.6 -0.4,-0.3 -0.8,-0.6 -1.2,-0.8 -0.2,-0.1 -0.4,-0.1 -0.6,0.1 -0.1,0.2 -0.3,0.4 -0.2,0.7 0.1,0.2 1.2,1 1.6,1 z m 2.7,-3.4 c 0.3,0 0.5,-0.1 0.7,-0.4 0.1,-0.2 0.1,-0.3 0,-0.5 -0.3,-0.4 -0.7,-0.8 -1.2,-1 -0.3,-0.1 -0.5,-0.1 -0.8,0.2 -0.2,0.2 -0.3,0.6 -0.1,0.8 0.3,0.5 0.8,0.8 1.4,0.9 z m -2.2,-0.2 c -0.4,0 -0.5,0.3 -0.7,0.6 -0.1,0.4 0.1,0.5 0.3,0.6 0.3,0.2 0.7,0.4 1,0.6 0.2,0.1 0.4,0.2 0.6,0 0.2,-0.2 0.4,-0.5 0.3,-0.8 -0.1,-0.2 -1.2,-1 -1.5,-1 z m 5.2,1.6 C 99.1,20 99,20 98.9,19.9 c -0.3,-0.2 -0.6,-0.4 -0.8,-0.6 -0.5,-0.4 -0.6,-0.4 -1,0.2 -0.4,0.5 -0.4,0.6 0.1,0.9 0.2,0.2 0.5,0.4 0.7,0.5 0.5,0.2 1.2,-0.2 1.2,-0.7 z m 3.7,2.7 c -0.1,0 -0.1,0 -0.2,0.1 -0.6,0.4 -0.6,1 -0.1,1.4 0.2,0.2 0.4,0.3 0.7,0.4 0.3,0.2 0.8,0 1,-0.4 0.2,-0.4 -0.1,-0.5 -0.3,-0.7 -0.3,-0.2 -0.5,-0.4 -0.8,-0.6 -0.1,0 -0.2,-0.1 -0.3,-0.2 z m -5.3,-5.5 c 0.2,0 0.5,-0.1 0.6,-0.3 0.1,-0.2 0,-0.4 -0.1,-0.6 -0.3,-0.4 -0.7,-0.7 -1.1,-0.9 -0.2,-0.1 -0.5,-0.1 -0.7,0.1 -0.2,0.2 -0.2,0.5 -0.2,0.8 0,0.2 1.2,0.9 1.5,0.9 z m 3.4,5.7 c 0.4,0 0.7,-0.3 0.8,-0.6 0.1,-0.3 -0.1,-0.4 -0.3,-0.6 -0.3,-0.2 -0.6,-0.4 -0.9,-0.6 -0.2,-0.1 -0.4,-0.2 -0.5,0 -0.2,0.3 -0.7,0.5 -0.4,0.9 0.3,0.4 0.8,0.7 1.3,0.9 z m -3.3,-1.3 c -0.2,-0.5 -0.7,-0.8 -1.1,-1 -0.5,-0.2 -0.7,0.3 -0.9,0.6 -0.2,0.2 -0.2,0.4 0.1,0.6 0.3,0.2 0.6,0.4 1,0.6 0.4,0.1 0.9,-0.2 0.9,-0.8 z m 1.3,1.1 c -0.3,0.1 -0.4,0.3 -0.7,0.6 -0.2,0.2 -0.2,0.4 0.1,0.6 0.3,0.2 0.7,0.4 1,0.6 0.2,0.1 0.4,0.1 0.6,0 0.2,-0.2 0.4,-0.4 0.4,-0.7 -0.1,-0.4 -1,-1.1 -1.4,-1.1 z m 3.2,3.7 c 0.3,0 0.5,-0.3 0.6,-0.5 0.1,-0.2 0.1,-0.5 -0.1,-0.6 -0.2,-0.2 -0.4,-0.4 -0.6,-0.5 -0.5,-0.4 -1.3,0 -1.4,0.6 0,0.1 0,0.2 0,0.2 0.5,0.3 1,0.5 1.5,0.8 z m -3.8,-0.3 c 0.3,0 0.5,-0.1 0.7,-0.4 0.1,-0.2 0,-0.4 -0.1,-0.6 -0.3,-0.3 -0.6,-0.6 -1,-0.8 -0.2,-0.1 -0.5,-0.2 -0.6,0.1 -0.2,0.2 -0.4,0.6 -0.2,0.8 0.3,0.4 0.7,0.7 1.2,0.9 z m -3.3,-4 c -0.2,0 -0.5,0 -0.5,0.2 0,0.3 -0.4,0.5 0,0.8 0.3,0.3 0.7,0.5 1,0.7 0.3,0.2 0.5,0 0.7,-0.1 0.2,-0.1 0.2,-0.3 0.1,-0.5 C 96,22.9 95.6,22.5 95,22.3 Z m 5.7,5.8 c 0.3,0 0.6,-0.1 0.7,-0.4 0.1,-0.2 0,-0.4 -0.2,-0.6 -0.3,-0.3 -0.5,-0.6 -0.9,-0.7 -0.2,-0.1 -0.5,-0.2 -0.7,0 -0.2,0.2 -0.3,0.6 -0.2,0.8 0.4,0.5 0.9,0.7 1.3,0.9 z"
   id="path80" />
	<path
   class="st1"
   d="m 116.2,33.4 c 0.5,-0.6 1,-1.1 1.5,-1.7 0.2,-0.3 0.4,-0.3 0.6,-0.1 2.2,1.9 4.4,3.7 6.6,5.5 1.3,1.1 2.5,2.1 3.8,3.1 0.3,0.2 0.3,0.4 0.1,0.7 -1.9,2.1 -3.6,4.4 -5.4,6.6 -0.2,0.3 -0.3,0.2 -0.6,0.1 -3.5,-2.9 -7.1,-5.8 -10.6,-8.7 -0.3,-0.2 -0.3,-0.4 -0.1,-0.6 0.3,-0.4 0.6,-0.8 1,-1.2 0.2,-0.2 0.4,-0.4 0.6,-0.7 0.6,-0.7 1.2,-1.4 1.8,-2.2 0.2,-0.2 0.4,-0.5 0.7,-0.8 z m -1.5,6.6 c 0.2,0 0.8,-0.3 0.9,-0.5 0.3,-0.5 0.3,-0.5 -0.2,-0.9 -0.2,-0.1 -0.4,-0.3 -0.6,-0.4 -0.5,-0.4 -1.3,-0.1 -1.6,0.4 -0.1,0.1 -0.1,0.3 0,0.4 0.1,0.1 1.2,1 1.5,1 z m 3.6,0.8 c 0,-0.2 -0.1,-0.3 -0.3,-0.4 -0.3,-0.2 -0.5,-0.3 -0.8,-0.5 -0.6,-0.5 -1,-0.2 -1.5,0.3 -0.2,0.3 -0.2,0.5 0.1,0.8 0.3,0.2 0.7,0.5 1,0.7 0.3,0.3 0.6,0 0.9,-0.1 0.3,-0.2 0.5,-0.5 0.6,-0.8 z m 1,1 c -0.3,0 -0.9,0.5 -1,0.8 0,0.2 0,0.3 0.1,0.4 0.4,0.3 0.8,0.7 1.2,0.9 0.4,0.2 0.9,-0.2 1.2,-0.7 0.2,-0.4 -0.2,-0.5 -0.4,-0.6 -0.3,-0.2 -0.6,-0.4 -0.8,-0.6 -0.1,-0.1 -0.2,-0.2 -0.3,-0.2 z m -3.6,-5.4 c -0.4,0.1 -0.8,0.4 -1.1,0.8 -0.1,0.2 0,0.3 0.1,0.4 0.4,0.3 0.8,0.6 1.1,0.8 0.3,0.2 0.6,0 0.7,-0.2 0.2,-0.2 0.6,-0.5 0.5,-0.9 0,-0.2 -1,-0.9 -1.3,-0.9 z m 7.4,8.7 c 0,0 0,-0.1 0,-0.1 -0.1,-0.2 -1.2,-1.1 -1.5,-1 -0.3,0.1 -0.7,0.2 -0.9,0.5 -0.2,0.3 0.1,0.5 0.3,0.7 0.2,0.3 0.6,0.5 0.9,0.7 0.6,0.3 1.1,-0.1 1.2,-0.8 z m -5,-6.8 c -0.3,0.1 -0.6,0.2 -0.8,0.5 -0.3,0.3 -0.3,0.5 0,0.7 0.3,0.2 0.7,0.5 1,0.7 0.3,0.2 0.5,0.1 0.7,-0.1 0.3,-0.2 0.5,-0.5 0.5,-0.9 0,-0.2 -1.1,-1 -1.4,-0.9 z m 2.6,2.1 c -0.3,0 -0.6,0.3 -0.8,0.5 -0.3,0.3 -0.3,0.5 0.1,0.7 0.3,0.2 0.7,0.5 1,0.7 0.3,0.2 0.5,0.1 0.7,-0.1 0.2,-0.3 0.6,-0.5 0.5,-0.9 -0.2,-0.2 -1.2,-0.9 -1.5,-0.9 z m -2.2,-4.6 c 0,-0.2 -0.1,-0.3 -0.2,-0.3 -0.3,-0.2 -0.6,-0.3 -0.9,-0.6 -0.4,-0.4 -0.8,-0.1 -1.2,0.4 -0.3,0.4 -0.1,0.7 0.2,0.9 0.2,0.2 0.4,0.3 0.6,0.4 0.3,0.2 0.5,0.2 0.8,0 0.3,-0.2 0.5,-0.5 0.7,-0.8 z m 5.8,7.9 c 0,-0.2 0,-0.3 -0.1,-0.4 -0.3,-0.2 -0.5,-0.4 -0.8,-0.6 -0.4,-0.2 -0.8,-0.1 -1.1,0.1 -0.3,0.2 -0.3,0.5 -0.1,0.7 0.3,0.3 0.6,0.6 0.9,0.8 0.3,0.2 0.6,0.2 0.9,0.1 0.3,-0.1 0.4,-0.4 0.3,-0.7 z m -3.4,-6 c 0,-0.2 -0.1,-0.3 -0.2,-0.4 -0.3,-0.2 -0.5,-0.3 -0.8,-0.5 -0.5,-0.3 -0.8,-0.2 -1.1,0.2 -0.3,0.4 -0.3,0.6 0.2,1 0.2,0.1 0.4,0.3 0.5,0.4 0.2,0.2 0.5,0.2 0.7,0 0.3,-0.1 0.5,-0.4 0.7,-0.7 z m 4,5.2 c 0.3,-0.1 0.6,-0.2 0.7,-0.5 0.1,-0.3 0.1,-0.6 -0.3,-0.8 -0.4,-0.2 -0.7,-0.4 -1,-0.6 -0.2,-0.1 -0.5,-0.2 -0.6,0.1 -0.2,0.2 -0.5,0.5 -0.3,0.8 0.4,0.4 1,0.8 1.5,1 z m -1.4,-3 c 0,-0.2 -0.1,-0.3 -0.3,-0.4 -0.3,-0.2 -0.5,-0.3 -0.8,-0.5 -0.5,-0.3 -0.7,-0.3 -1.1,0.2 -0.3,0.4 -0.1,0.7 0.2,1 0.2,0.1 0.4,0.3 0.5,0.4 0.2,0.2 0.5,0.2 0.7,0.1 0.4,-0.3 0.6,-0.5 0.8,-0.8 z m 1.9,-0.6 c -0.2,0 -0.5,0.1 -0.6,0.4 -0.1,0.3 0,0.5 0.2,0.7 0.4,0.3 0.7,0.6 1.2,0.8 0.2,0.1 0.5,0.1 0.6,-0.1 0.2,-0.2 0.3,-0.5 0.2,-0.8 -0.1,-0.3 -1.3,-1 -1.6,-1 z m -7.3,-6 c -0.3,0.1 -0.6,0.2 -0.7,0.5 -0.2,0.3 0.1,0.5 0.3,0.7 0.2,0.3 0.5,0.5 0.8,0.6 0.5,0.2 0.8,0 0.9,-0.5 0.1,-0.5 -0.7,-1.3 -1.3,-1.3 z m 2.5,1.8 c -0.6,0 -1,0.5 -0.7,0.9 0.3,0.4 0.7,0.8 1.1,1 0.4,0.1 0.6,-0.1 0.8,-0.4 0.1,-0.4 0.1,-0.7 -0.3,-0.9 -0.3,-0.2 -0.5,-0.6 -0.9,-0.6 z m 1.9,2.9 c 0,0.5 1.1,1.3 1.6,1.2 0.4,-0.1 0.3,-0.4 0.4,-0.7 0.1,-0.2 0,-0.3 -0.2,-0.5 -0.3,-0.2 -0.5,-0.4 -0.8,-0.6 -0.3,-0.2 -0.5,-0.1 -0.7,0.1 -0.2,0.1 -0.4,0.2 -0.3,0.5 z"
   id="path81" />
	<path
   class="st1"
   d="m 111.3,35.9 c -0.8,0.9 -1.5,1.8 -2.5,2.6 -0.7,0.6 -1.2,0.8 -2,0 -0.1,-0.1 -0.3,-0.2 -0.4,-0.3 -1,-0.8 -2,-1.6 -3,-2.4 0,-0.1 -0.1,-0.1 -0.1,-0.2 0.3,0 0.4,-0.2 0.5,-0.4 0.7,-0.9 1.5,-1.5 2.5,-1.9 0.9,-0.4 1.9,-0.3 2.9,-0.3 1.3,0 2.5,-0.4 3.4,-1.4 0.4,-0.4 0.7,-1 1,-1.5 0.7,-0.9 1.5,-1.5 2.7,-1.4 0.3,0 0.6,0 0.9,-0.1 -0.6,1 -1.4,1.8 -2.1,2.7 -0.2,0.3 -0.5,0.6 -0.7,0.9 -0.2,0.2 -0.4,0.3 -0.5,0.6 -0.7,0.7 -1.3,1.6 -2,2.4 -0.2,0.3 -0.4,0.5 -0.6,0.7 z"
   id="path82" />
	<path
   class="st1"
   d="m 116.3,27 c 0.1,0.1 0.1,0.2 0.2,0.3 -0.4,0 -0.6,-0.2 -1,-0.2 -1.3,-0.1 -2.3,0.4 -3.1,1.2 -1.3,1.3 -2.9,2.1 -4.7,2.3 -1.5,0.2 -2.9,0.7 -4.1,1.8 -0.1,0.1 -0.2,0.2 -0.4,0.1 0.6,-0.8 1.1,-1.5 1.7,-2.3 0.3,-0.3 0.5,-0.6 0.7,-1 0.6,-0.7 1.1,-1.4 1.6,-2.1 0.2,-0.2 0.4,-0.5 0.6,-0.8 0.7,-0.9 1.4,-1.8 2.1,-2.6 0.9,-1.2 0.8,-1 1.8,-0.3 1.4,1.4 3,2.4 4.6,3.6 z"
   id="path83" />
	<path
   class="st7"
   d="m 103.2,32.6 c 0.1,0 0.3,0 0.4,-0.1 1.1,-1.1 2.5,-1.7 4.1,-1.8 1.9,-0.2 3.4,-1 4.7,-2.3 0.9,-0.8 1.9,-1.4 3.1,-1.2 0.3,0 0.6,0.2 1,0.2 0,0 0,0 0,0 0,0 0.1,0.1 0.1,0.1 0.4,0.1 0.6,0.4 0.7,0.7 0.1,0.2 0.2,0.5 -0.2,0.6 -0.3,0.1 -0.6,0.1 -0.9,0.1 -1.2,-0.1 -2,0.4 -2.7,1.4 -0.3,0.5 -0.6,1 -1,1.5 -0.9,1 -2,1.4 -3.4,1.4 -1,0 -1.9,-0.1 -2.9,0.3 -1,0.4 -1.9,1.1 -2.5,1.9 -0.1,0.2 -0.2,0.4 -0.5,0.4 -0.4,-0.2 -0.8,-0.5 -1,-0.8 -0.4,-0.5 0.1,-1 0.3,-1.4 0.1,-0.1 0.2,-0.2 0.3,-0.3 0,0 0.1,-0.1 0.1,-0.1 0,0 0,0 0,0 0,0 0.1,-0.1 0.1,-0.1 0,0 0,0 0,0 0,0 0.1,-0.1 0.1,-0.1 0,0 0,0 0,0 0.1,-0.2 0.2,-0.3 0.1,-0.4 z"
   id="path84" />
	<path
   class="st8"
   d="m 98.7,45.8 c 1.1,0.8 2.1,1.5 3.2,2.3 1.1,0.7 2.1,1.4 3.2,2.1 1,0.6 2,1.3 3,1.9 0.2,0.1 0.4,0.2 0.6,0.3 -0.6,0.1 -1.2,0 -1.8,0 -2.1,-0.2 -4.2,-0.8 -6.1,-1.8 -1.5,-0.8 -2.9,-1.8 -4.1,-3 0.7,-0.6 1.4,-1.2 2,-1.8 z"
   id="path85" />
	<path
   class="st8"
   d="m 88.9,35.4 c 0.8,0.4 1.3,1.1 1.8,1.8 1.6,2 3.2,4.1 5,5.9 0.4,0.4 0.9,0.6 1.1,1.1 -0.5,0.7 -0.9,1.4 -1.4,2.1 C 94.7,45.4 93.9,44.5 93.2,43.6 91.5,41.2 90.1,38.7 89,36 88.9,35.8 88.9,35.6 88.9,35.4 Z"
   id="path86" />
	<path
   class="st8"
   d="m 103.3,35.8 c 1,0.8 2.1,1.5 3,2.4 -0.6,0.6 -1.3,1.2 -1.9,1.8 -0.8,-0.8 -1.6,-1.6 -2.6,-2.3 0.5,-0.7 1.1,-1.3 1.5,-1.9 z"
   id="path87" />
	<path
   class="st1"
   d="m 95.4,46.4 c 0.5,-0.7 0.9,-1.4 1.4,-2.1 0.7,0.4 1.3,1.1 2,1.6 -0.7,0.6 -1.3,1.2 -2,1.8 -0.5,0.4 -1,0.9 -1.6,1.3 -0.4,-0.2 -0.6,-0.5 -1,-0.6 0.4,-0.7 0.8,-1.4 1.2,-2 z"
   id="path88" />
	<path
   class="st9"
   d="m 112.9,22.5 c 0.8,-1.1 0.8,-1.1 1.9,-0.3 0.1,0.1 0.3,0.3 0.5,0.3 0.1,0.3 0.3,0.4 0.6,0.5 0.3,0.4 0.7,0.6 1,0.9 0.7,0.6 0.8,0.9 0.1,1.6 -0.1,0.1 -0.1,0.2 -0.2,0.2 -0.2,0.1 -0.3,0 -0.5,-0.1 -1.1,-0.8 -2.2,-1.7 -3.3,-2.5 -0.2,-0.2 -0.3,-0.4 -0.1,-0.6 z"
   id="path89" />
	<path
   class="st10"
   d="m 112.9,22.5 c -0.2,0.3 0,0.4 0.2,0.6 1.1,0.8 2.2,1.7 3.3,2.5 0.1,0.1 0.3,0.2 0.5,0.1 0.2,0.3 0,0.6 -0.2,0.9 -0.1,0.1 -0.2,0.3 -0.4,0.4 -1.5,-1.2 -3.2,-2.2 -4.6,-3.5 0.1,-0.2 0.3,-0.4 0.4,-0.6 0.2,-0.3 0.4,-0.4 0.8,-0.4 z"
   id="path90" />
	<path
   class="st9"
   d="m 94.2,48.3 c 0.4,0.1 0.6,0.4 1,0.6 0,0.1 0,0.3 0,0.4 0.2,0.8 -0.3,1.5 -1.1,1.6 -0.7,0.1 -1.4,-0.4 -1.5,-1.1 -0.1,-0.7 0.5,-1.4 1.2,-1.5 0.2,0 0.3,0 0.4,0 z"
   id="path91" />
	<path
   class="st10"
   d="m 105.6,29.3 c -0.2,0.4 -0.4,0.7 -0.7,1 -0.7,-0.6 -1.6,-1.1 -2.2,-1.9 -0.1,-0.1 -0.2,-0.1 -0.3,-0.1 0.2,-0.3 0.4,-0.5 0.6,-0.7 1,0.5 1.8,1.1 2.6,1.7 z"
   id="path92" />
	<path
   class="st10"
   d="m 107.8,26.4 c -0.1,0.3 -0.3,0.6 -0.6,0.8 -0.2,-0.1 -0.4,-0.3 -0.6,-0.4 -0.6,-0.4 -1.3,-0.8 -1.7,-1.4 0.2,-0.3 0.3,-0.5 0.6,-0.7 0.8,0.6 1.6,1 2.3,1.7 z"
   id="path93" />
	<path
   class="st10"
   d="m 113.8,32.9 c 0.1,-0.2 0.3,-0.4 0.5,-0.6 0.5,0.3 1,0.6 1.5,0.9 0.1,0.1 0.3,0.2 0.4,0.2 -0.3,0.3 -0.5,0.6 -0.8,0.9 -0.3,-0.4 -0.8,-0.6 -1.2,-0.9 -0.1,-0.2 -0.3,-0.3 -0.4,-0.5 z"
   id="path94" />
	<path
   class="st10"
   d="m 111.3,35.9 c 0.2,-0.2 0.4,-0.5 0.6,-0.7 0.1,0.1 0.3,0.2 0.4,0.3 0.5,0.3 0.7,0.8 1.3,0.9 -0.2,0.2 -0.4,0.4 -0.6,0.7 -0.5,-0.4 -1.1,-0.8 -1.7,-1.2 z"
   id="path95" />
	<path
   class="st1"
   d="m 115.8,23 c -0.3,-0.1 -0.5,-0.2 -0.6,-0.5 0.3,-0.3 0.7,-0.6 1,-0.8 0.1,-0.1 0.2,-0.1 0.3,0 0.1,0.1 0.1,0.2 0,0.4 -0.1,0.2 -0.4,0.6 -0.7,0.9 z"
   id="path96" />
	<path
   class="st9"
   d="m 103.2,32.6 c 0,0.1 0,0.2 -0.1,0.2 0,-0.1 0.1,-0.2 0.1,-0.2 z"
   id="path97" />
	<path
   class="st9"
   d="m 103,32.9 c 0,0 -0.1,0.1 -0.1,0.1 0,-0.1 0.1,-0.1 0.1,-0.1 z"
   id="path98" />
	<path
   class="st9"
   d="m 103.1,32.8 c 0,0 -0.1,0.1 -0.1,0.1 0,-0.1 0.1,-0.1 0.1,-0.1 z"
   id="path99" />
	<path
   class="st9"
   d="m 102.9,33 c 0,0 -0.1,0.1 -0.1,0.1 z"
   id="path100" />
	<path
   class="st9"
   d="m 116.8,25.7 c 0,0 -0.1,-0.1 -0.1,-0.1 z"
   id="path101" />
	<path
   class="st7"
   d="m 97.3,38.8 c 1.1,0 2,0.5 2.6,1.1 1.1,1.1 2.2,2.1 3.3,3.2 0.7,0.6 1.3,1.4 1.3,2.5 0,0.2 0.1,0.3 -0.1,0.5 -0.2,0.1 -0.3,0 -0.5,-0.1 -0.5,-0.3 -0.8,-0.8 -1.2,-1.2 -1.3,-1.6 -2.8,-3.1 -4.6,-4.3 -0.3,-0.2 -0.5,-0.2 -0.8,-0.3 -0.3,-0.1 -0.6,-0.3 -0.8,-0.5 -0.3,-0.4 -0.2,-0.5 0.2,-0.6 0.2,-0.3 0.5,-0.3 0.6,-0.3 z"
   id="path102" />
	<path
   class="st6"
   d="m 104.9,25.4 c 0.4,0.6 1.1,0.9 1.7,1.4 0.2,0.1 0.4,0.3 0.6,0.4 -0.5,0.7 -1,1.5 -1.6,2.1 -0.8,-0.7 -1.6,-1.3 -2.6,-1.7 0.6,-0.7 1.2,-1.5 1.9,-2.2 z"
   id="path103" />
	<path
   class="st10"
   d="m 103.2,20.9 c 0,0.5 -0.6,0.9 -1.1,0.7 -0.3,-0.2 -0.7,-0.4 -1,-0.7 -0.2,-0.1 -0.5,-0.2 -0.3,-0.5 0.2,-0.3 0.4,-0.8 0.8,-0.7 0.6,0.2 1,0.6 1.4,1 0.2,0.1 0.2,0.1 0.2,0.2 z"
   id="path104" />
	<path
   class="st10"
   d="m 100.5,18.7 c 0,0.5 -0.6,0.9 -1,0.7 -0.3,-0.2 -0.6,-0.4 -0.9,-0.6 -0.2,-0.1 -0.5,-0.2 -0.3,-0.5 0.2,-0.3 0.4,-0.8 0.8,-0.7 0.6,0.2 1,0.6 1.4,1 z"
   id="path105" />
	<path
   class="st10"
   d="m 104.8,23.5 c -0.5,-0.3 -1,-0.6 -1.4,-1 -0.3,-0.2 0.1,-0.5 0.2,-0.7 0.1,-0.2 0.4,-0.4 0.7,-0.2 0.4,0.3 0.8,0.6 1.2,0.9 0.2,0.1 0.2,0.3 0.1,0.5 -0.2,0.2 -0.3,0.5 -0.8,0.5 z"
   id="path106" />
	<path
   class="st10"
   d="m 93.4,22.2 c -0.4,0 -1.5,-0.7 -1.6,-1 -0.1,-0.3 0.1,-0.5 0.2,-0.7 0.1,-0.2 0.4,-0.2 0.6,-0.1 0.5,0.2 0.9,0.5 1.2,0.8 0.2,0.2 0.4,0.3 0.2,0.6 -0.1,0.2 -0.3,0.4 -0.6,0.4 z"
   id="path107" />
	<path
   class="st10"
   d="m 96.1,18.8 c -0.6,-0.1 -1,-0.4 -1.4,-0.9 -0.2,-0.2 -0.1,-0.6 0.1,-0.8 0.2,-0.3 0.5,-0.3 0.8,-0.2 0.5,0.2 0.8,0.6 1.2,1 0.1,0.1 0.1,0.3 0,0.5 -0.2,0.3 -0.5,0.4 -0.7,0.4 z"
   id="path108" />
	<path
   class="st10"
   d="m 93.9,18.6 c 0.3,0 1.4,0.8 1.5,1 0.1,0.3 -0.1,0.6 -0.3,0.8 -0.2,0.2 -0.4,0.1 -0.6,0 -0.3,-0.2 -0.7,-0.4 -1,-0.6 -0.2,-0.1 -0.4,-0.2 -0.3,-0.6 0.1,-0.3 0.2,-0.6 0.7,-0.6 z"
   id="path109" />
	<path
   class="st10"
   d="m 99.1,20.2 c 0,0.5 -0.7,0.9 -1.1,0.6 -0.3,-0.1 -0.5,-0.3 -0.7,-0.5 -0.5,-0.4 -0.5,-0.4 -0.1,-0.9 0.4,-0.5 0.4,-0.5 1,-0.2 0.3,0.2 0.6,0.4 0.8,0.6 0,0.1 0.1,0.2 0.1,0.4 z"
   id="path110" />
	<path
   class="st10"
   d="m 102.8,22.9 c 0.1,0.1 0.2,0.1 0.3,0.2 0.3,0.2 0.5,0.4 0.8,0.6 0.2,0.2 0.5,0.3 0.3,0.7 -0.3,0.4 -0.7,0.6 -1,0.4 -0.2,-0.1 -0.4,-0.3 -0.7,-0.4 -0.5,-0.4 -0.5,-1 0.1,-1.4 0,0 0.1,0 0.2,-0.1 z"
   id="path111" />
	<path
   class="st10"
   d="m 97.5,17.4 c -0.3,0 -1.5,-0.8 -1.5,-1 0,-0.3 0,-0.6 0.2,-0.8 0.2,-0.2 0.4,-0.2 0.7,-0.1 0.4,0.2 0.8,0.5 1.1,0.9 0.2,0.2 0.3,0.4 0.1,0.6 -0.1,0.3 -0.3,0.4 -0.6,0.4 z"
   id="path112" />
	<path
   class="st10"
   d="m 100.9,23.1 c -0.5,-0.2 -1,-0.5 -1.3,-0.9 -0.2,-0.3 0.3,-0.6 0.4,-0.9 0.1,-0.2 0.3,-0.1 0.5,0 0.3,0.2 0.6,0.4 0.9,0.6 0.2,0.1 0.5,0.3 0.3,0.6 -0.1,0.3 -0.4,0.6 -0.8,0.6 z"
   id="path113" />
	<path
   class="st10"
   d="m 97.6,21.8 c 0,0.6 -0.6,0.9 -1,0.7 -0.3,-0.2 -0.6,-0.4 -1,-0.6 -0.2,-0.2 -0.3,-0.3 -0.1,-0.6 0.3,-0.3 0.4,-0.8 0.9,-0.6 0.6,0.3 1.1,0.6 1.2,1.1 z"
   id="path114" />
	<path
   class="st10"
   d="m 98.9,22.9 c 0.4,0 1.3,0.8 1.4,1 0.1,0.3 -0.2,0.5 -0.4,0.7 -0.2,0.2 -0.4,0.2 -0.6,0 C 99,24.4 98.6,24.2 98.3,24 98,23.8 98,23.7 98.2,23.4 c 0.3,-0.2 0.4,-0.5 0.7,-0.5 z"
   id="path115" />
	<path
   class="st10"
   d="m 102.1,26.6 c -0.5,-0.3 -1,-0.5 -1.4,-0.9 0,0 0,-0.1 0,-0.2 0.1,-0.6 0.9,-0.9 1.4,-0.6 0.2,0.2 0.4,0.3 0.6,0.5 0.2,0.2 0.2,0.4 0.1,0.6 -0.2,0.3 -0.4,0.5 -0.7,0.6 z"
   id="path116" />
	<path
   class="st10"
   d="m 98.3,26.3 c -0.4,-0.2 -0.9,-0.5 -1.2,-0.9 -0.2,-0.2 0,-0.6 0.2,-0.8 0.2,-0.2 0.4,-0.2 0.6,-0.1 0.4,0.2 0.7,0.5 1,0.8 0.1,0.2 0.2,0.4 0.1,0.6 -0.2,0.3 -0.4,0.4 -0.7,0.4 z"
   id="path117" />
	<path
   class="st10"
   d="m 95,22.3 c 0.5,0.2 1,0.6 1.3,1.1 0.1,0.2 0,0.4 -0.1,0.5 -0.2,0.2 -0.4,0.3 -0.7,0.1 -0.3,-0.2 -0.7,-0.4 -1,-0.7 -0.3,-0.3 0,-0.5 0,-0.8 0,-0.1 0.3,-0.2 0.5,-0.2 z"
   id="path118" />
	<path
   class="st10"
   d="m 100.7,28.1 c -0.4,-0.2 -0.9,-0.5 -1.2,-0.9 -0.2,-0.2 0,-0.6 0.2,-0.8 0.2,-0.2 0.4,-0.2 0.7,0 0.4,0.2 0.6,0.4 0.9,0.7 0.2,0.2 0.3,0.4 0.2,0.6 -0.2,0.3 -0.4,0.4 -0.8,0.4 z"
   id="path119" />
	<path
   class="st6"
   d="m 113.7,36.4 c -0.6,-0.1 -0.9,-0.6 -1.3,-0.9 -0.2,-0.1 -0.3,-0.2 -0.4,-0.3 0.6,-0.8 1.3,-1.6 2,-2.4 0,0.3 0.2,0.4 0.4,0.5 0.4,0.3 0.9,0.5 1.2,0.9 -0.8,0.8 -1.3,1.5 -1.9,2.2 z"
   id="path120" />
	<path
   class="st10"
   d="m 114.7,40 c -0.3,0 -1.4,-0.8 -1.5,-1.1 0,-0.1 0,-0.3 0,-0.4 0.3,-0.6 1.1,-0.8 1.6,-0.4 0.2,0.1 0.4,0.3 0.6,0.4 0.5,0.4 0.5,0.4 0.2,0.9 -0.1,0.2 -0.7,0.6 -0.9,0.6 z"
   id="path121" />
	<path
   class="st10"
   d="m 118.3,40.8 c -0.1,0.3 -0.3,0.6 -0.6,0.7 -0.3,0.1 -0.6,0.4 -0.9,0.1 -0.3,-0.3 -0.7,-0.5 -1,-0.7 -0.3,-0.2 -0.3,-0.5 -0.1,-0.8 0.5,-0.5 0.9,-0.8 1.5,-0.3 0.2,0.2 0.5,0.4 0.8,0.5 0.2,0.3 0.3,0.4 0.3,0.5 z"
   id="path122" />
	<path
   class="st10"
   d="m 119.3,41.8 c 0.1,0 0.3,0.1 0.4,0.1 0.3,0.2 0.6,0.4 0.8,0.6 0.2,0.2 0.6,0.2 0.4,0.6 -0.3,0.6 -0.8,0.9 -1.2,0.7 -0.5,-0.2 -0.9,-0.5 -1.2,-0.9 -0.1,-0.1 -0.2,-0.2 -0.1,-0.4 0,-0.2 0.6,-0.7 0.9,-0.7 z"
   id="path123" />
	<path
   class="st10"
   d="m 115.7,36.4 c 0.3,0 1.3,0.7 1.4,0.9 0.1,0.4 -0.2,0.7 -0.5,0.9 -0.2,0.2 -0.4,0.4 -0.7,0.2 -0.4,-0.3 -0.8,-0.5 -1.1,-0.8 -0.1,-0.1 -0.2,-0.2 -0.1,-0.4 0.2,-0.4 0.6,-0.7 1,-0.8 z"
   id="path124" />
	<path
   class="st10"
   d="m 123.1,45.1 c -0.1,0.8 -0.6,1.1 -1.2,0.8 -0.4,-0.2 -0.7,-0.4 -0.9,-0.7 -0.2,-0.2 -0.4,-0.4 -0.3,-0.7 0.2,-0.3 0.5,-0.4 0.9,-0.5 0.3,0 1.4,0.8 1.5,1 0,0 0,0.1 0,0.1 z"
   id="path125" />
	<path
   class="st10"
   d="m 118.1,38.3 c 0.3,0 1.4,0.7 1.4,1 0,0.4 -0.3,0.7 -0.5,0.9 -0.2,0.2 -0.4,0.3 -0.7,0.1 -0.3,-0.3 -0.6,-0.5 -1,-0.7 -0.3,-0.2 -0.3,-0.5 0,-0.7 0.3,-0.4 0.5,-0.5 0.8,-0.6 z"
   id="path126" />
	<path
   class="st10"
   d="m 120.7,40.5 c 0.3,0 1.4,0.7 1.4,0.9 0.1,0.4 -0.2,0.7 -0.5,0.9 -0.2,0.2 -0.4,0.3 -0.7,0.1 -0.3,-0.3 -0.7,-0.5 -1,-0.7 -0.3,-0.2 -0.3,-0.5 -0.1,-0.7 0.4,-0.3 0.6,-0.5 0.9,-0.5 z"
   id="path127" />
	<path
   class="st10"
   d="m 118.5,35.8 c -0.2,0.3 -0.4,0.6 -0.7,0.8 -0.3,0.2 -0.5,0.2 -0.8,0 -0.2,-0.2 -0.4,-0.3 -0.6,-0.4 -0.3,-0.2 -0.5,-0.5 -0.2,-0.9 0.4,-0.4 0.8,-0.7 1.2,-0.4 0.3,0.2 0.6,0.4 0.9,0.6 0,0.1 0.1,0.1 0.2,0.3 z"
   id="path128" />
	<path
   class="st10"
   d="m 124.4,43.7 c 0,0.3 -0.1,0.6 -0.4,0.7 -0.3,0.2 -0.6,0.1 -0.9,-0.1 -0.3,-0.2 -0.6,-0.5 -0.9,-0.8 -0.3,-0.3 -0.2,-0.5 0.1,-0.7 0.3,-0.3 0.7,-0.4 1.1,-0.1 0.3,0.2 0.6,0.4 0.8,0.6 0.2,0.1 0.3,0.2 0.2,0.4 z"
   id="path129" />
	<path
   class="st10"
   d="m 120.9,37.7 c -0.1,0.3 -0.3,0.6 -0.7,0.8 -0.2,0.1 -0.5,0.2 -0.7,0 -0.2,-0.1 -0.4,-0.3 -0.5,-0.4 -0.5,-0.4 -0.5,-0.6 -0.2,-1 0.4,-0.5 0.6,-0.5 1.1,-0.2 0.3,0.2 0.5,0.3 0.8,0.5 0,0 0.2,0.1 0.2,0.3 z"
   id="path130" />
	<path
   class="st10"
   d="m 124.9,42.9 c -0.6,-0.2 -1.1,-0.6 -1.5,-1.1 -0.2,-0.3 0.1,-0.6 0.3,-0.8 0.2,-0.2 0.4,-0.2 0.6,-0.1 0.3,0.2 0.7,0.4 1,0.6 0.4,0.2 0.4,0.5 0.3,0.8 -0.1,0.4 -0.3,0.5 -0.7,0.6 z"
   id="path131" />
	<path
   class="st10"
   d="m 123.5,39.9 c -0.1,0.3 -0.3,0.6 -0.7,0.8 -0.3,0.2 -0.5,0.1 -0.7,-0.1 -0.2,-0.1 -0.4,-0.3 -0.5,-0.4 -0.3,-0.3 -0.5,-0.6 -0.2,-1 0.4,-0.5 0.6,-0.5 1.1,-0.2 0.3,0.2 0.5,0.3 0.8,0.5 0,0.1 0.2,0.2 0.2,0.4 z"
   id="path132" />
	<path
   class="st10"
   d="m 125.4,39.3 c 0.4,0 1.5,0.7 1.6,1 0.1,0.3 0,0.6 -0.2,0.8 -0.2,0.2 -0.4,0.2 -0.6,0.1 -0.4,-0.2 -0.8,-0.5 -1.2,-0.8 -0.2,-0.2 -0.3,-0.4 -0.2,-0.7 0.1,-0.3 0.4,-0.4 0.6,-0.4 z"
   id="path133" />
	<path
   class="st10"
   d="m 118.1,33.3 c 0.6,0 1.4,0.9 1.3,1.3 -0.1,0.5 -0.5,0.7 -0.9,0.5 -0.3,-0.1 -0.6,-0.4 -0.8,-0.6 -0.2,-0.2 -0.4,-0.4 -0.3,-0.7 0.1,-0.4 0.4,-0.5 0.7,-0.5 z"
   id="path134" />
	<path
   class="st10"
   d="m 120.6,35.1 c 0.4,0 0.6,0.4 0.9,0.5 0.4,0.2 0.5,0.5 0.3,0.9 -0.1,0.4 -0.4,0.6 -0.8,0.4 -0.5,-0.2 -0.9,-0.5 -1.1,-1 -0.3,-0.3 0.1,-0.8 0.7,-0.8 z"
   id="path135" />
	<path
   class="st10"
   d="m 122.5,38 c 0,-0.2 0.1,-0.4 0.3,-0.5 0.2,-0.1 0.5,-0.2 0.7,-0.1 0.3,0.2 0.6,0.4 0.8,0.6 0.1,0.1 0.3,0.2 0.2,0.5 -0.1,0.3 -0.1,0.6 -0.4,0.7 -0.5,0.1 -1.6,-0.8 -1.6,-1.2 z"
   id="path136" />
</g>
</svg>
