<svg width="139" height="52" viewBox="0 0 139 52" fill="none" xmlns="http://www.w3.org/2000/svg">
<path d="M31.5213 10.1351L31.4601 10.1967C31.4601 10.1967 31.3683 10.2583 31.3683 10.2891C31.3071 10.4431 31.154 10.5663 31.2765 10.7204C31.3377 10.8436 31.4601 10.936 31.5825 10.9668C31.5825 10.9668 31.5825 10.9668 31.5825 11.0284C31.4295 11.2133 31.2765 11.3981 31.154 11.6137C31.154 11.6137 31.1336 11.6137 31.0928 11.6137C30.542 11.2749 29.9605 11.0284 29.3485 10.8744C28.6752 10.6896 27.9713 10.6587 27.2674 10.8744C27.2062 10.8744 27.145 10.8744 27.145 10.9668C27.145 11.0592 27.145 11.09 27.145 11.1516C27.4817 11.9834 27.9101 12.7535 28.4304 13.4929C28.6446 13.8009 28.8894 14.0474 29.1036 14.3246C28.9812 14.5403 28.8588 14.7251 28.7364 14.9407H28.6446C28.4304 14.9407 28.2467 15.1872 28.2773 15.4028C28.2773 15.6185 28.5222 15.8033 28.7364 15.7417C28.9812 15.7417 29.1036 15.4644 29.073 15.2488V15.1256C29.226 15.0024 29.3791 14.8483 29.5627 14.7251C29.9299 15.0948 30.3584 15.4028 30.8174 15.6493C31.3989 15.9573 32.0109 16.1422 32.6842 16.2038C32.8678 16.2038 33.0514 16.2038 33.2351 16.2038C33.2963 15.9881 33.3575 15.7725 33.3575 15.5569C33.3575 14.8791 33.2045 14.2322 32.8678 13.6469C32.623 13.1848 32.2864 12.7535 31.9497 12.3531C32.1334 12.1682 32.3476 12.0142 32.5312 11.7986C32.5312 11.7986 32.623 11.8602 32.6536 11.891C32.8984 12.1374 33.0514 12.0758 33.2657 11.891C33.5411 11.6753 33.7859 11.3673 34.0308 11.09C34.2144 11.2133 34.398 11.3365 34.5816 11.4597C34.4898 11.5829 34.398 11.7061 34.2756 11.8294C34.1838 11.9218 34.2144 11.9526 34.2756 12.0142C35.3773 12.9076 36.4484 13.8009 37.5195 14.6943C37.5807 14.7559 37.6419 14.7559 37.7031 14.6943C38.254 14.0166 38.7743 13.308 39.3557 12.6611C39.4169 12.5687 39.4475 12.5379 39.3251 12.4455C38.9273 12.1374 38.5294 11.7986 38.1622 11.4905C37.4889 10.936 36.8156 10.3507 36.1424 9.79619C36.0506 9.73458 36.02 9.73458 35.9588 9.827C35.8057 10.0118 35.6527 10.1967 35.4997 10.3507C35.4385 10.3507 35.4079 10.3507 35.3773 10.2891C35.2243 10.1967 35.0713 10.1042 34.9182 10.0118C34.9795 9.91941 35.0713 9.827 35.1325 9.73458C35.3467 9.45733 35.5915 9.21088 35.7751 8.90283C35.8976 8.87202 35.8669 8.7796 35.8363 8.71799C35.8363 8.62557 35.7139 8.53316 35.6221 8.50235C35.6221 8.44074 35.6221 8.40993 35.5609 8.37913C35.5609 8.34832 35.6221 8.28671 35.6833 8.25591C35.7445 8.16349 35.8057 8.10188 35.7445 7.97865C35.7445 7.94785 35.7445 7.91704 35.8057 7.91704C35.9894 7.7014 35.9894 7.60899 35.8057 7.42415C35.7139 7.33174 35.5609 7.27012 35.4997 7.1469C35.5915 7.05448 35.6833 6.96207 35.7445 6.83884C35.7445 6.80804 35.7445 6.74643 35.7445 6.71562C35.7445 6.68482 35.6833 6.71562 35.6527 6.71562C35.5609 6.80804 35.4385 6.90046 35.3467 6.96207C35.2855 6.96207 35.2549 6.90046 35.1937 6.86965C34.9693 6.70535 34.7754 6.73616 34.6122 6.96207C34.5204 6.96207 34.4286 6.99287 34.3674 7.08529C34.3674 7.1469 34.2756 7.20851 34.245 7.27012C33.9389 7.05448 33.9695 6.99287 33.6941 7.36254C33.4799 7.63979 33.2657 7.91704 33.0514 8.16349C32.8372 7.94785 32.5924 7.79382 32.3476 7.63979C32.47 7.48576 32.623 7.30093 32.7454 7.1469C32.8066 7.08529 32.8066 7.05448 32.7454 6.99287C31.6743 6.13031 30.6032 5.23695 29.5321 4.34358C29.4301 4.26144 29.3281 4.2717 29.226 4.37439C28.6752 5.02131 28.1855 5.69903 27.6347 6.34595C27.5123 6.49998 27.5123 6.56159 27.5735 6.5924C28.6446 7.48576 29.7157 8.40993 30.7562 9.3033C30.8174 9.36491 30.848 9.36491 30.9092 9.27249C31.0316 9.11847 31.1847 8.96444 31.3071 8.81041C31.3071 8.81041 31.3683 8.84121 31.3989 8.84121C31.6131 9.05685 31.8579 9.21088 32.0721 9.42652C31.8885 9.67297 31.7355 9.88861 31.5519 10.1351C31.5519 10.1351 31.5213 10.1351 31.4907 10.2275C31.4907 10.1967 31.4907 10.1967 31.4907 10.2275L31.5213 10.1351Z" fill="white"/>
<path d="M31.9803 12.3223C32.3169 12.7228 32.6536 13.1233 32.8984 13.6162C33.2044 14.2323 33.4187 14.8484 33.3881 15.5261C33.3881 15.7417 33.3269 15.9574 33.2656 16.173C33.2044 16.173 33.1432 16.1114 33.082 16.0806C32.776 15.8958 32.47 15.6801 32.1639 15.4953C31.8273 15.2797 31.4907 15.064 31.1846 14.8484C30.848 14.6327 30.542 14.3863 30.2053 14.1399C29.9911 13.9858 29.8381 13.7702 29.5933 13.647C29.532 13.4929 29.379 13.4005 29.2566 13.3081C28.7058 12.7536 28.2161 12.1067 27.7265 11.4906C27.5734 11.2749 27.4204 11.0593 27.1756 10.9361C27.1756 10.8436 27.2674 10.8744 27.298 10.8436C28.0019 10.6588 28.6752 10.6896 29.379 10.8436C29.9911 10.9977 30.5726 11.2441 31.1234 11.583C31.1234 11.583 31.1438 11.583 31.1846 11.583C31.4907 11.7678 31.7355 12.0143 31.9803 12.2607V12.3223ZM29.7769 11.9526C29.7769 11.9526 29.6851 11.9526 29.5933 11.9526C29.4708 12.0143 29.4402 12.0451 29.532 12.1375C29.5933 12.2299 29.6851 12.2607 29.7769 12.2915C29.8687 12.3223 29.9605 12.3531 30.0217 12.3839C30.5726 12.7228 31.0316 13.1849 31.4294 13.7086C31.5519 13.8318 31.6437 13.9858 31.7967 14.0782C31.7967 14.0782 31.8885 14.1399 31.9497 14.0782C32.0109 14.0782 31.9497 13.9858 31.9497 13.9242C31.9497 13.6162 31.7661 13.3697 31.5519 13.1541C31.2152 12.846 30.8786 12.5072 30.542 12.1683C30.3277 12.0143 30.0829 11.891 29.7463 11.891L29.7769 11.9526Z" fill="#2A3559"/>
<path d="M31.3377 8.71799C31.2153 8.87202 31.0622 9.02605 30.9398 9.18008C30.8786 9.24169 30.848 9.24169 30.7868 9.21088C29.7157 8.31752 28.6752 7.39335 27.6041 6.49998C27.5429 6.49998 27.5429 6.40757 27.6041 6.34595C28.1549 5.69903 28.6446 5.02131 29.1954 4.37439C29.2771 4.2717 29.3791 4.26144 29.5015 4.34358C30.5726 5.23695 31.6437 6.09951 32.7148 6.99287C32.776 7.05448 32.776 7.08529 32.7148 7.1469C32.5924 7.30093 32.4394 7.48576 32.317 7.63979C32.2558 7.7014 32.1946 7.76302 32.1334 7.85543C31.9191 8.07107 31.7355 8.31752 31.5519 8.56396C31.4907 8.56396 31.4295 8.65638 31.3683 8.71799H31.3377ZM31.5825 6.43837C31.4601 6.25354 31.3071 6.13031 31.1541 6.09951C31.001 6.0687 30.9704 6.22273 30.9092 6.31515C30.848 6.40757 30.9092 6.43837 31.001 6.46918C31.0928 6.53079 31.1847 6.6232 31.3071 6.68482C31.3989 6.68482 31.5825 6.5924 31.5825 6.43837ZM30.7562 5.76065C30.7562 5.76065 30.7562 5.72984 30.7562 5.69903C30.6338 5.57581 30.5114 5.45259 30.3278 5.39098C30.1747 5.36017 30.1135 5.48339 30.0829 5.60662C30.0217 5.69903 30.0829 5.72984 30.1747 5.76065C30.2666 5.82226 30.3584 5.88387 30.4502 5.94548C30.6032 6.0379 30.8174 5.91467 30.7868 5.76065H30.7562ZM32.0721 7.23932C32.1946 7.23932 32.2558 7.1469 32.317 7.08529C32.317 7.02368 32.317 6.96207 32.317 6.93126C32.1946 6.83884 32.0721 6.74643 31.9497 6.65401C31.8579 6.5924 31.7661 6.65401 31.7355 6.71562C31.7049 6.77723 31.5825 6.86965 31.6743 6.93126C31.7967 7.05448 31.9497 7.1469 32.1028 7.23932H32.0721ZM28.5834 6.83884C28.6446 6.83884 28.7364 6.80804 28.767 6.71562C28.7976 6.6232 28.767 6.56159 28.7058 6.53079C28.5834 6.43837 28.461 6.34595 28.3386 6.28434C28.2773 6.25354 28.2161 6.25354 28.1549 6.31515C28.1549 6.37676 28.0631 6.43837 28.0937 6.53079C28.0937 6.5924 28.461 6.83884 28.5834 6.83884ZM29.4097 5.79145C29.5015 5.79145 29.5627 5.76065 29.6239 5.66823C29.6239 5.60662 29.6239 5.57581 29.6239 5.5142C29.5321 5.39098 29.4097 5.26775 29.2566 5.20614C29.1648 5.17534 29.1036 5.17534 29.0118 5.26775C28.9506 5.32937 28.92 5.45259 29.0118 5.5142C29.1036 5.66823 29.2566 5.76065 29.4403 5.79145H29.4097ZM28.7364 5.72984C28.614 5.72984 28.5834 5.82226 28.5222 5.91467C28.5222 6.0379 28.5222 6.0687 28.614 6.09951C28.7058 6.16112 28.8282 6.22273 28.92 6.28434C28.9812 6.31515 29.0424 6.34595 29.1036 6.28434C29.1648 6.22273 29.226 6.13031 29.1954 6.0379C29.1648 5.97629 28.8282 5.72984 28.7364 5.72984ZM30.3278 6.22273C30.3278 6.16112 30.3278 6.16112 30.2666 6.13031C30.1747 6.0687 30.0829 6.00709 30.0217 5.94548C29.8687 5.82226 29.8381 5.82226 29.7157 6.00709C29.5933 6.16112 29.5933 6.19193 29.7157 6.28434C29.7769 6.34595 29.8687 6.40756 29.9299 6.43837C30.0829 6.49998 30.2972 6.37676 30.2972 6.22273H30.3278ZM31.4601 7.05448C31.4601 7.05448 31.4397 7.06475 31.3989 7.08529C31.2153 7.20851 31.2153 7.39335 31.3989 7.51657C31.4601 7.57818 31.5213 7.60899 31.6131 7.63979C31.7049 7.7014 31.8579 7.63979 31.9191 7.51657C31.9803 7.39335 31.9191 7.36254 31.8273 7.30093C31.7355 7.23932 31.6743 7.17771 31.5825 7.1161C31.5825 7.1161 31.5213 7.1161 31.4907 7.05448H31.4601ZM29.8381 5.36017C29.8993 5.36017 29.9911 5.32937 30.0217 5.26775C30.0217 5.20614 30.0217 5.14453 30.0217 5.08292C29.9299 4.9597 29.8075 4.86728 29.6851 4.80567C29.6239 4.77486 29.5321 4.77486 29.4709 4.83647C29.4097 4.89809 29.4097 4.9905 29.4097 5.08292C29.4097 5.14453 29.7769 5.36017 29.8687 5.36017H29.8381ZM30.8786 7.1161C31.001 7.1161 31.0928 7.02368 31.1234 6.93126C31.1234 6.83884 31.1234 6.80804 31.0316 6.74643C30.9398 6.68482 30.848 6.6232 30.7562 6.56159C30.695 6.53079 30.6338 6.49998 30.6032 6.56159C30.542 6.65401 30.389 6.71562 30.4808 6.83884C30.5726 6.96207 30.7256 7.05448 30.8786 7.1161ZM29.8687 6.71562C29.8075 6.56159 29.6545 6.46918 29.5321 6.40756C29.3791 6.34595 29.3179 6.49998 29.2566 6.5924C29.1954 6.65401 29.1954 6.71562 29.2566 6.77723C29.3485 6.83884 29.4403 6.90046 29.5627 6.96207C29.6851 6.99287 29.8381 6.90046 29.8381 6.71562H29.8687ZM30.2666 7.05448C30.1747 7.08529 30.1441 7.1469 30.0523 7.23932C29.9605 7.33174 29.9911 7.36254 30.0523 7.42415C30.1441 7.48576 30.2666 7.54738 30.3584 7.60899C30.4196 7.63979 30.4808 7.63979 30.542 7.60899C30.6032 7.54738 30.6644 7.48576 30.6644 7.39335C30.6338 7.27012 30.3584 7.05448 30.236 7.05448H30.2666ZM31.2459 8.19429C31.3377 8.19429 31.3989 8.10188 31.4295 8.04027C31.4601 7.97866 31.4295 7.88624 31.4295 7.85543C31.3683 7.79382 31.3071 7.73221 31.2459 7.7014C31.0928 7.57818 30.848 7.7014 30.8174 7.88624V7.94785C30.9704 8.04027 31.1234 8.10188 31.2765 8.19429H31.2459ZM30.0829 8.10188C30.1747 8.10188 30.236 8.07107 30.2972 7.97865C30.2972 7.91704 30.2972 7.85543 30.2972 7.79382C30.2053 7.7014 30.1135 7.60899 29.9911 7.54738C29.9299 7.51657 29.8381 7.48576 29.8075 7.57818C29.7463 7.63979 29.6851 7.76302 29.7463 7.82463C29.8381 7.94785 29.9605 8.04027 30.1135 8.10188H30.0829ZM29.073 6.86965C29.0118 6.86965 28.92 6.86965 28.92 6.93126C28.92 7.02368 28.7976 7.08529 28.92 7.17771C29.0118 7.27012 29.1342 7.33174 29.226 7.39335C29.3179 7.45496 29.3791 7.39335 29.4403 7.36254C29.5015 7.33174 29.5015 7.27012 29.4403 7.20851C29.3485 7.05448 29.226 6.93126 29.0424 6.86965H29.073ZM30.8174 8.65638C30.9092 8.65638 31.001 8.62557 31.0316 8.53316C31.0316 8.47155 31.0316 8.40993 30.9704 8.34832C30.8786 8.25591 30.8174 8.16349 30.695 8.13268C30.6338 8.10188 30.542 8.07107 30.4808 8.13268C30.4196 8.19429 30.389 8.31752 30.4196 8.37913C30.542 8.53316 30.695 8.59477 30.8174 8.65638Z" fill="#2A3559"/>
<path d="M35.5609 10.2891C35.7139 10.1043 35.867 9.95023 36.02 9.7654C36.0812 9.67298 36.1424 9.67298 36.2036 9.73459C36.8769 10.3199 37.5501 10.8744 38.2234 11.4289C38.6213 11.7678 38.9885 12.0758 39.3863 12.3839C39.4781 12.4455 39.4782 12.5071 39.4169 12.5995C38.8355 13.2464 38.3152 13.955 37.7644 14.6327C37.7032 14.7251 37.6726 14.6943 37.5807 14.6327C36.5096 13.7393 35.4079 12.846 34.3368 11.9526C34.245 11.891 34.245 11.8294 34.3368 11.7678C34.4286 11.6445 34.5204 11.5213 34.6428 11.3981C34.704 11.3365 34.7652 11.2749 34.8265 11.1825C35.0101 10.9668 35.1937 10.7512 35.3773 10.5047C35.4385 10.4431 35.4997 10.3507 35.5915 10.2583L35.5609 10.2891ZM35.1019 12.3223C35.1631 12.3223 35.3467 12.2299 35.3773 12.1682C35.4385 12.0656 35.4181 11.9731 35.3161 11.891C35.2549 11.891 35.1937 11.7986 35.1325 11.7678C34.9795 11.6445 34.7346 11.7678 34.6428 11.891C34.6428 11.891 34.6428 11.9834 34.6428 12.0142C34.6428 12.0142 35.0101 12.3223 35.1019 12.3223ZM36.2036 12.5687C36.2036 12.5071 36.2036 12.4763 36.1118 12.4455C36.02 12.3839 35.9588 12.3531 35.867 12.2915C35.6833 12.1374 35.5609 12.2299 35.4079 12.3839C35.3467 12.4763 35.3467 12.5379 35.4079 12.6303C35.4997 12.6919 35.6221 12.7844 35.7139 12.846C35.8058 12.9384 35.8976 12.846 35.9894 12.846C36.0812 12.7844 36.1424 12.6919 36.173 12.5995L36.2036 12.5687ZM36.5096 12.8768C36.4178 12.8768 36.2342 13.0308 36.2036 13.1232C36.2036 13.1848 36.2036 13.2156 36.2036 13.2464C36.326 13.3389 36.4484 13.4621 36.5708 13.5237C36.6933 13.5853 36.8463 13.4621 36.9381 13.308C36.9993 13.1848 36.8769 13.154 36.8157 13.1232C36.7239 13.0616 36.632 13 36.5708 12.9384C36.5708 12.9076 36.5096 12.8768 36.479 12.8768H36.5096ZM35.4079 11.2133C35.2855 11.2133 35.1631 11.3365 35.0713 11.4597C35.0713 11.5213 35.0713 11.5521 35.0713 11.5829C35.1937 11.6753 35.3161 11.7678 35.4079 11.8294C35.4997 11.891 35.5915 11.8294 35.6221 11.7678C35.6833 11.7062 35.8058 11.6137 35.7752 11.4905C35.7752 11.4289 35.4691 11.2133 35.3773 11.2133H35.4079ZM37.6726 13.8934C37.6726 13.8009 37.3053 13.5237 37.2135 13.5545C37.1217 13.5853 36.9993 13.6161 36.9381 13.7085C36.8769 13.8009 36.9381 13.8626 37.0299 13.9242C37.0911 14.0166 37.2135 14.0782 37.3053 14.1398C37.4889 14.2322 37.642 14.109 37.6726 13.8934ZM36.1424 11.7986C36.0506 11.7986 35.9588 11.8602 35.8976 11.9526C35.8058 12.045 35.8058 12.1066 35.8976 12.1682C35.9894 12.2299 36.1118 12.3223 36.2036 12.3839C36.2954 12.4455 36.3566 12.3839 36.4178 12.3839C36.5096 12.3223 36.5708 12.2299 36.5708 12.1066C36.5708 12.045 36.2342 11.7986 36.1424 11.8294V11.7986ZM36.9381 12.4455C36.8463 12.4455 36.7545 12.5379 36.6933 12.5995C36.6014 12.6919 36.6014 12.7535 36.6933 12.8152C36.7851 12.8768 36.9075 12.9692 36.9993 13.0308C37.0911 13.0924 37.1523 13.0308 37.2135 13.0308C37.2747 12.9384 37.3971 12.8768 37.3665 12.7535C37.3053 12.6919 36.9993 12.4763 36.9075 12.4763L36.9381 12.4455ZM36.2648 11.0284C36.2648 10.9668 36.2648 10.936 36.2036 10.936C36.1118 10.8744 36.02 10.8436 35.9282 10.7512C35.8058 10.628 35.6833 10.7512 35.5609 10.8744C35.4691 10.9976 35.5609 11.09 35.6221 11.1517C35.6833 11.2133 35.7446 11.2441 35.8058 11.2749C35.8976 11.3365 35.9588 11.3365 36.0506 11.2749C36.1424 11.2133 36.2036 11.1208 36.2648 11.0284ZM38.0398 13.4621C38.0398 13.4005 38.0398 13.3697 38.0398 13.3389C37.948 13.2772 37.8868 13.2156 37.795 13.154C37.6726 13.0924 37.5501 13.154 37.4583 13.154C37.3665 13.2156 37.3665 13.308 37.4583 13.3697C37.5501 13.4621 37.642 13.5545 37.7338 13.6161C37.8256 13.6777 37.9174 13.6777 38.0092 13.6161C38.101 13.6161 38.1316 13.4929 38.101 13.4005L38.0398 13.4621ZM36.9993 11.6137C36.9993 11.5521 36.9993 11.5213 36.9381 11.4905C36.8463 11.4289 36.7851 11.3981 36.6933 11.3365C36.5402 11.2441 36.4484 11.2749 36.3566 11.3981C36.2648 11.5213 36.2648 11.5829 36.4178 11.7062C36.479 11.7062 36.5402 11.7986 36.5708 11.8294C36.632 11.891 36.7239 11.891 36.7851 11.8294C36.8769 11.7986 36.9381 11.7062 36.9993 11.6137ZM38.2234 13.2156C38.3152 13.2156 38.407 13.154 38.4376 13.0616C38.4682 12.9692 38.4376 12.8768 38.3458 12.8152C38.254 12.7535 38.1316 12.6919 38.0398 12.6303C37.9786 12.6303 37.8868 12.5687 37.8562 12.6303C37.795 12.6919 37.7032 12.7844 37.7644 12.8768C37.8868 13 38.0704 13.1232 38.2234 13.1848V13.2156ZM37.795 12.2915C37.795 12.2299 37.795 12.199 37.7032 12.1682C37.6114 12.1066 37.5501 12.0758 37.4583 12.0142C37.3053 11.9218 37.2441 11.9218 37.1217 12.0758C37.0299 12.199 37.1217 12.2915 37.1829 12.3839C37.2441 12.3839 37.3053 12.4763 37.3359 12.5071C37.3971 12.5687 37.4889 12.5687 37.5501 12.5071C37.6726 12.4147 37.7338 12.3531 37.795 12.2607V12.2915ZM38.3764 12.1066C38.3152 12.1066 38.2234 12.1066 38.1928 12.2299C38.1928 12.3223 38.1928 12.3839 38.254 12.4455C38.3764 12.5379 38.4682 12.6303 38.6213 12.6919C38.6825 12.6919 38.7743 12.6919 38.8049 12.6919C38.8661 12.6303 38.8967 12.5379 38.8661 12.4455C38.8661 12.3531 38.4682 12.1374 38.3764 12.1374V12.1066ZM36.1424 10.2583C36.0506 10.2583 35.9588 10.3199 35.9282 10.4123C35.867 10.5047 35.9282 10.5663 36.02 10.628C36.0812 10.7204 36.173 10.782 36.2648 10.8128C36.4178 10.8744 36.5096 10.8128 36.5402 10.6588C36.5402 10.5047 36.326 10.2583 36.1424 10.2583ZM36.9075 10.8128C36.7239 10.8128 36.6014 10.9668 36.6933 11.09C36.7851 11.2133 36.9075 11.3365 37.0299 11.3981C37.1523 11.3981 37.2135 11.3981 37.2747 11.2749C37.2747 11.1517 37.2747 11.0592 37.1829 10.9976C37.0911 10.936 37.0299 10.8128 36.9075 10.8128ZM37.4889 11.7062C37.4889 11.8602 37.8256 12.1066 37.9786 12.0758C38.101 12.0758 38.0704 11.9526 38.101 11.8602C38.101 11.7986 38.101 11.7678 38.0398 11.7062C37.948 11.6445 37.8868 11.5829 37.795 11.5213C37.7032 11.4597 37.642 11.5213 37.5807 11.5213C37.5195 11.5213 37.4583 11.5829 37.4889 11.6753V11.7062Z" fill="#2A3559"/>
<path d="M34.0613 11.0592C33.8165 11.3365 33.6023 11.6137 33.2963 11.8602C33.082 12.045 32.929 12.1066 32.6842 11.8602C32.6842 11.8602 32.5924 11.7986 32.5618 11.7678C32.2557 11.5213 31.9497 11.2749 31.6437 11.0284C31.6437 11.0284 31.6437 11.0284 31.6437 10.9668C31.7355 10.9668 31.7661 10.9052 31.7967 10.8436C32.0109 10.5663 32.2557 10.3815 32.5618 10.2583C32.8372 10.1351 33.1432 10.1659 33.4493 10.1659C33.7553 10.1659 34.2143 10.0427 34.4898 9.7346C34.6122 9.61137 34.704 9.42654 34.7958 9.27251C35.01 8.99526 35.2549 8.81042 35.6221 8.84123C35.7139 8.84123 35.8057 8.84123 35.8975 8.81042C35.7139 9.11848 35.4691 9.36493 35.2549 9.64218C35.1937 9.7346 35.1018 9.82701 35.0406 9.91943C34.9794 9.98104 34.9182 10.0118 34.8876 10.1043C34.6734 10.3199 34.4898 10.5972 34.2756 10.8436C34.2143 10.936 34.1531 10.9976 34.0919 11.0592H34.0613Z" fill="#2A3559"/>
<path d="M35.5915 8.31752C35.5915 8.34832 35.5915 8.37913 35.6528 8.40993C35.5303 8.40993 35.4691 8.34832 35.3467 8.34832C34.9489 8.31752 34.6428 8.47155 34.398 8.71799C34.0002 9.11847 33.5105 9.36491 32.9597 9.42652C32.5006 9.48813 32.0722 9.64216 31.7049 9.98102C31.7049 9.98102 31.6437 10.0426 31.5825 9.98102C31.7661 9.73458 31.9192 9.51894 32.1028 9.27249C32.1946 9.18008 32.2558 9.08766 32.317 8.96444C32.5006 8.7488 32.6536 8.53316 32.8066 8.31752C32.8679 8.25591 32.9291 8.16349 32.9903 8.07107C33.2045 7.79382 33.4187 7.51657 33.6329 7.27012C33.9084 6.90046 33.8778 6.96207 34.1838 7.17771C34.6122 7.60899 35.1019 7.91704 35.5915 8.28671V8.31752Z" fill="#2A3559"/>
<path d="M31.5825 10.0426C31.5825 10.0426 31.6743 10.0426 31.7049 10.0426C32.0415 9.70373 32.47 9.5189 32.9596 9.48809C33.5411 9.42648 34.0001 9.18003 34.398 8.77956C34.6734 8.53311 34.9794 8.34828 35.3467 8.40989C35.4385 8.40989 35.5303 8.4715 35.6527 8.4715C35.7751 8.53311 35.8363 8.62553 35.8669 8.71795C35.8669 8.77956 35.9281 8.87198 35.8057 8.90278C35.7139 8.93359 35.6221 8.93359 35.5303 8.93359C35.1631 8.90278 34.9182 9.05681 34.704 9.36487C34.6122 9.5189 34.5204 9.67292 34.398 9.82695C34.1225 10.135 33.7859 10.2582 33.3575 10.2582C32.929 10.2582 32.776 10.2582 32.47 10.3506C32.1639 10.4739 31.8885 10.6895 31.7049 10.936C31.7049 10.9976 31.6437 11.0592 31.5519 11.0592C31.4295 10.9976 31.307 10.9052 31.2458 10.8127C31.1234 10.6587 31.2458 10.5047 31.3377 10.3815C31.3377 10.3815 31.3989 10.3198 31.4295 10.289V10.2274C31.4601 10.135 31.4907 10.1042 31.4601 10.0734L31.5825 10.0426Z" fill="#E4E1DF"/>
<path d="M30.2053 14.109C30.542 14.3555 30.848 14.5711 31.1846 14.8175C31.5213 15.0332 31.8273 15.2488 32.1639 15.4645C32.47 15.6493 32.776 15.8649 33.082 16.0498L33.2657 16.1422C33.082 16.1422 32.8984 16.1422 32.7148 16.1422C32.0721 16.0806 31.4295 15.8957 30.848 15.5877C30.3889 15.3412 29.9605 15.0332 29.5933 14.6635C29.8075 14.4787 30.0217 14.2938 30.2053 14.109Z" fill="#BCCEEA"/>
<path d="M27.2062 10.9052C27.4511 11.0284 27.6041 11.244 27.7571 11.4597C28.2467 12.0758 28.7364 12.7227 29.2873 13.2772C29.8381 13.8317 29.5627 13.462 29.6239 13.6161C29.4709 13.8317 29.3485 14.0473 29.1954 14.263C28.9812 13.9857 28.7364 13.7085 28.5222 13.4312C28.0019 12.6919 27.5735 11.9217 27.2368 11.09C27.2062 11.0284 27.2062 10.9668 27.2062 10.9052Z" fill="#BCCEEA"/>
<path d="M31.6131 11.0284C31.9191 11.2749 32.2558 11.4905 32.5312 11.7678C32.3476 11.9526 32.1334 12.1374 31.9497 12.3223C31.7049 12.0758 31.4601 11.8294 31.1541 11.6138C31.3071 11.3981 31.4907 11.2133 31.6131 11.0284Z" fill="#BCCEEA"/>
<path d="M29.1954 14.2938C29.3484 14.0781 29.4709 13.8625 29.6239 13.6469C29.8381 13.7701 30.0217 13.9857 30.2359 14.1397C30.0217 14.3246 29.8381 14.5094 29.6239 14.6942C29.4709 14.8175 29.3178 14.9715 29.1342 15.0947C29.0118 15.0331 28.9506 14.9407 28.8282 14.9099C28.9506 14.6942 29.073 14.4786 29.1954 14.2938Z" fill="#2A3559"/>
<path d="M34.551 6.93129C34.7142 6.70538 34.908 6.67458 35.1324 6.83887C35.1324 6.86968 35.2243 6.93129 35.2855 6.93129C35.2855 7.02371 35.3773 7.05451 35.4691 7.08532C35.5609 7.20854 35.6833 7.27015 35.7751 7.36257C35.9893 7.5474 36.0199 7.63982 35.7751 7.85546C35.7751 7.88627 35.7751 7.91707 35.7139 7.91707C35.6527 7.94788 35.6221 7.91707 35.5609 7.88627C35.2243 7.63982 34.8876 7.36257 34.551 7.11613C34.4898 7.05451 34.4592 6.9929 34.551 6.93129Z" fill="#A29D9B"/>
<path d="M34.551 6.93127C34.4898 7.02369 34.551 7.0545 34.6122 7.11611C34.9489 7.36255 35.2855 7.63981 35.6221 7.88625C35.6221 7.91706 35.7139 7.94786 35.7751 7.91706C35.8364 8.00947 35.7751 8.10189 35.7139 8.19431C35.7139 8.22511 35.6527 8.28672 35.5915 8.31753C35.1325 7.94786 34.6122 7.63981 34.1838 7.23933C34.1838 7.17772 34.2756 7.11611 34.3062 7.0545C34.3674 6.96208 34.4286 6.93127 34.551 6.93127Z" fill="#BCCDE9"/>
<path d="M28.8282 14.8792C28.9506 14.8792 29.0118 15.0024 29.1342 15.064V15.1872C29.1955 15.4337 29.0424 15.6493 28.7976 15.6801C28.5834 15.6801 28.3692 15.5569 28.3386 15.3412C28.3386 15.1256 28.4916 14.91 28.7058 14.8792H28.8282Z" fill="#A29D9B"/>
<path d="M32.3169 9.02602C32.2557 9.14924 32.1945 9.24166 32.1027 9.33407C31.8885 9.14924 31.6131 8.99521 31.4295 8.74876C31.4295 8.71796 31.3682 8.71796 31.3376 8.71796C31.3989 8.62554 31.4601 8.56393 31.5213 8.50232C31.8273 8.65635 32.0721 8.84118 32.3169 9.02602Z" fill="#BCCDE9"/>
<path d="M32.9902 8.13271C32.9902 8.22512 32.8984 8.31754 32.8066 8.37915C32.7454 8.34835 32.6842 8.28673 32.623 8.25593C32.4394 8.1327 32.2251 8.00948 32.1027 7.82465C32.1639 7.73223 32.1945 7.67062 32.2863 7.60901C32.5312 7.79384 32.776 7.91707 32.9902 8.13271Z" fill="#BCCDE9"/>
<path d="M34.8264 10.135C34.8264 10.0734 34.9182 10.0118 34.9794 9.9502C35.1324 10.0426 35.2855 10.135 35.4385 10.2274C35.4385 10.2274 35.5303 10.2891 35.5609 10.2891C35.4691 10.3815 35.4079 10.4739 35.3161 10.5663C35.2243 10.4431 35.0712 10.3815 34.9488 10.2891C34.9182 10.2274 34.857 10.1966 34.8264 10.135Z" fill="#BCCDE9"/>
<path d="M34.0613 11.0593C34.1225 10.9977 34.1838 10.9052 34.245 10.8436C34.245 10.8436 34.3368 10.9052 34.3674 10.936C34.5204 11.0285 34.5816 11.1825 34.7652 11.2133C34.704 11.2749 34.6428 11.3365 34.5816 11.4289C34.4286 11.3057 34.245 11.1825 34.0613 11.0593Z" fill="#BCCDE9"/>
<path d="M35.4385 7.08532C35.3467 7.05452 35.2855 7.02371 35.2549 6.93129C35.3467 6.83888 35.4691 6.74646 35.5609 6.68485C35.5609 6.65404 35.6221 6.65404 35.6527 6.68485C35.6527 6.71565 35.6527 6.74646 35.6527 6.80807C35.6221 6.86968 35.5303 6.9929 35.4385 7.08532Z" fill="#2A3559"/>
<path d="M29.7769 11.9526C30.1135 11.9526 30.3889 12.1067 30.5726 12.2915C30.9092 12.6304 31.2458 12.9384 31.5825 13.2773C31.7967 13.4621 31.9803 13.7086 31.9803 14.0474C31.9803 14.3863 31.9803 14.1398 31.9803 14.2015C31.9191 14.2015 31.8885 14.2015 31.8273 14.2015C31.6743 14.109 31.5825 13.955 31.4601 13.8318C31.0622 13.3389 30.6032 12.8768 30.0523 12.5071C29.9605 12.4455 29.8993 12.4455 29.8075 12.4147C29.7157 12.3839 29.6239 12.3223 29.5627 12.2607C29.4708 12.1375 29.5015 12.1067 29.6239 12.0759C29.6851 11.9834 29.7769 11.9834 29.8075 11.9834L29.7769 11.9526Z" fill="#E4E1DF"/>
<path d="M32.1028 7.82458C32.2252 8.00942 32.4394 8.10184 32.623 8.25586C32.6842 8.28667 32.7454 8.34828 32.8066 8.37909C32.6536 8.59473 32.5006 8.84117 32.317 9.02601C32.0722 8.81037 31.8273 8.62553 31.5213 8.50231C31.7049 8.28667 31.8885 8.04022 32.1028 7.82458Z" fill="white"/>
<path d="M31.5825 6.43837C31.5825 6.5924 31.3989 6.71562 31.2458 6.65401C31.154 6.5924 31.0316 6.53079 30.9398 6.43837C30.8786 6.40757 30.7868 6.37676 30.848 6.28434C30.9092 6.19193 30.9704 6.0379 31.0928 6.0687C31.2764 6.13032 31.3989 6.25354 31.5213 6.37676C31.5621 6.3973 31.5825 6.41783 31.5825 6.43837Z" fill="#BCCDE9"/>
<path d="M30.7562 5.76059C30.7562 5.91462 30.5726 6.03784 30.4502 5.97623C30.3584 5.91462 30.2665 5.85301 30.1747 5.7914C30.1135 5.76059 30.0217 5.72979 30.0829 5.63737C30.1441 5.54495 30.2053 5.39093 30.3278 5.42173C30.5114 5.48334 30.6338 5.60657 30.7562 5.72979V5.76059Z" fill="#BCCDE9"/>
<path d="M32.0721 7.23937C31.9191 7.14695 31.7661 7.05453 31.6437 6.93131C31.5519 6.8697 31.6437 6.77728 31.7049 6.71567C31.7661 6.65406 31.8273 6.59245 31.9191 6.65406C32.0415 6.74648 32.164 6.83889 32.2864 6.93131C32.3476 6.96212 32.3476 7.02373 32.2864 7.08534C32.2252 7.14695 32.1946 7.23937 32.0415 7.23937H32.0721Z" fill="#BCCDE9"/>
<path d="M28.5834 6.8389C28.461 6.8389 28.1243 6.62326 28.0937 6.53084C28.0631 6.43842 28.0937 6.37681 28.1549 6.3152C28.2161 6.25359 28.2774 6.25359 28.3386 6.28439C28.4916 6.34601 28.614 6.43842 28.7058 6.53084C28.767 6.59245 28.8282 6.62326 28.767 6.71567C28.767 6.77729 28.6752 6.8389 28.5834 6.8389Z" fill="#BCCDE9"/>
<path d="M29.4097 5.79148C29.2261 5.76067 29.1037 5.66825 28.9812 5.51423C28.92 5.45261 28.9812 5.32939 28.9812 5.26778C29.0424 5.17536 29.1343 5.17536 29.2261 5.20617C29.3791 5.26778 29.4709 5.391 29.5933 5.51423C29.5933 5.54503 29.5933 5.60664 29.5933 5.66825C29.5321 5.76067 29.4403 5.79148 29.3791 5.79148H29.4097Z" fill="#BCCDE9"/>
<path d="M28.7364 5.72986C28.8282 5.72986 29.1648 5.9763 29.1955 6.03792C29.1955 6.13033 29.1955 6.22275 29.1036 6.28436C29.0424 6.34597 28.9812 6.31517 28.92 6.28436C28.8282 6.22275 28.7058 6.16114 28.614 6.09953C28.5528 6.06872 28.4916 6.03792 28.5222 5.91469C28.5528 5.82228 28.5834 5.72986 28.7364 5.72986Z" fill="#BCCDE9"/>
<path d="M30.3277 6.22272C30.3277 6.37675 30.1135 6.49997 29.9911 6.40755C29.8993 6.37675 29.8381 6.31513 29.7769 6.25352C29.6749 6.17137 29.6749 6.07896 29.7769 5.97627C29.8789 5.87359 29.9809 5.85305 30.0829 5.91466C30.1747 5.97627 30.2665 6.03788 30.3277 6.0995C30.3277 6.0995 30.3277 6.16111 30.3277 6.22272Z" fill="#BCCDE9"/>
<path d="M31.4601 7.05444C31.4601 7.08525 31.5213 7.08525 31.5519 7.11605C31.6437 7.17767 31.7049 7.23928 31.7967 7.30089C31.8579 7.3625 31.9497 7.39331 31.8885 7.51653C31.7967 7.63975 31.6743 7.70136 31.5825 7.63975C31.5213 7.60895 31.4601 7.54733 31.3682 7.51653C31.2152 7.39331 31.2152 7.20847 31.3682 7.08525C31.3682 7.08525 31.3682 7.08525 31.4294 7.05444H31.4601Z" fill="#BCCDE9"/>
<path d="M29.8381 5.36018C29.7463 5.36018 29.379 5.11374 29.379 5.05212C29.379 4.95971 29.379 4.86729 29.4402 4.80568C29.5014 4.74407 29.5626 4.74407 29.6545 4.77487C29.7769 4.83648 29.8993 4.9289 29.9911 5.05212C30.0523 5.11374 30.0829 5.17535 29.9911 5.23696C29.9911 5.32938 29.8993 5.36018 29.8075 5.36018H29.8381Z" fill="#BCCDE9"/>
<path d="M30.8786 7.11608C30.7256 7.05446 30.5726 6.96205 30.4808 6.83882C30.4196 6.74641 30.5726 6.65399 30.6032 6.56157C30.6032 6.49996 30.695 6.53077 30.7562 6.56157C30.848 6.62318 30.9399 6.6848 31.0317 6.74641C31.0929 6.77721 31.1847 6.83882 31.1235 6.93124C31.0929 7.02366 31.0011 7.11608 30.8786 7.11608Z" fill="#BCCDE9"/>
<path d="M29.8687 6.71568C29.8687 6.90052 29.6851 6.99293 29.5627 6.93132C29.4709 6.86971 29.3791 6.8081 29.2567 6.74649C29.1955 6.68488 29.1649 6.65407 29.2567 6.56165C29.3485 6.46924 29.3791 6.31521 29.5321 6.37682C29.7157 6.46924 29.8687 6.56165 29.8993 6.71568H29.8687Z" fill="#BCCDE9"/>
<path d="M30.2666 7.05444C30.389 7.05444 30.6644 7.30089 30.695 7.3625C30.695 7.45492 30.6338 7.51653 30.5726 7.57814C30.5114 7.63975 30.4502 7.63975 30.389 7.57814C30.2972 7.51653 30.1748 7.45492 30.083 7.39331C29.9911 7.33169 29.9911 7.30089 30.083 7.20847C30.1748 7.14686 30.2054 7.05444 30.2972 7.05444H30.2666Z" fill="#BCCDE9"/>
<path d="M31.2458 8.19435C31.0928 8.10193 30.9398 8.04032 30.8174 7.9171V7.85549C30.8174 7.67066 31.0928 7.57824 31.2458 7.67066C31.307 7.73227 31.3682 7.76307 31.4294 7.82468C31.4907 7.88629 31.4907 7.94791 31.4294 8.00952C31.3682 8.10193 31.307 8.16355 31.2152 8.19435H31.2458Z" fill="#BCCDE9"/>
<path d="M30.083 8.10184C29.9605 8.04023 29.8075 7.94781 29.7157 7.82459C29.6545 7.76297 29.7157 7.63975 29.7769 7.57814C29.8381 7.51653 29.8993 7.51653 29.9605 7.54733C30.083 7.60895 30.1748 7.70136 30.2666 7.79378C30.2666 7.85539 30.3278 7.917 30.2666 7.97861C30.2054 8.07103 30.1442 8.10184 30.0524 8.10184H30.083Z" fill="#BCCDE9"/>
<path d="M29.073 6.86963C29.226 6.93124 29.379 7.05446 29.4709 7.20849C29.4709 7.2701 29.4709 7.33171 29.4709 7.36252C29.4096 7.42413 29.3484 7.45494 29.2566 7.39333C29.1648 7.33171 29.0424 7.2701 28.9506 7.17769C28.8588 7.08527 28.9506 7.02366 28.9506 6.93124C28.9506 6.90043 29.0424 6.86963 29.1036 6.86963H29.073Z" fill="#BCCDE9"/>
<path d="M30.8174 8.65633C30.695 8.59472 30.542 8.5023 30.4502 8.37908C30.389 8.31747 30.4502 8.19425 30.5114 8.13263C30.5726 8.07102 30.6338 8.07102 30.7256 8.13263C30.848 8.19425 30.9092 8.25586 31.001 8.34827C31.0622 8.40989 31.0928 8.4715 31.0622 8.53311C31.001 8.62553 30.9398 8.65633 30.8174 8.65633Z" fill="#BCCDE9"/>
<path d="M34.7958 11.2133C34.6122 11.2133 34.5204 11.0284 34.398 10.936C34.3368 10.936 34.3062 10.8744 34.2756 10.8436C34.4592 10.5971 34.6734 10.3507 34.8876 10.1042C34.8876 10.1967 34.9488 10.2275 35.0101 10.2583C35.1325 10.3507 35.2855 10.4123 35.3773 10.5355C35.1325 10.782 34.9794 10.9976 34.7958 11.2133Z" fill="white"/>
<path d="M35.1019 12.3223C35.0101 12.3223 34.6734 12.0758 34.6428 11.9834V11.8602C34.7346 11.6753 34.9795 11.6137 35.1325 11.737C35.1937 11.737 35.2549 11.8294 35.3161 11.8602C35.4181 11.9423 35.4385 12.0347 35.3773 12.1374C35.3773 12.199 35.1631 12.3223 35.1019 12.3223Z" fill="#BCCDE9"/>
<path d="M36.2036 12.5687C36.2036 12.6611 36.1118 12.7535 36.0199 12.7843C35.9281 12.7843 35.8363 12.9075 35.7445 12.7843C35.6527 12.6919 35.5303 12.6303 35.4385 12.5687C35.3467 12.507 35.3467 12.4146 35.4385 12.3222C35.5915 12.1682 35.7139 12.0758 35.8975 12.2298C35.9587 12.2914 36.0505 12.353 36.1424 12.3838C36.2036 12.4762 36.2342 12.507 36.2342 12.5378L36.2036 12.5687Z" fill="#BCCDE9"/>
<path d="M36.5096 12.8768C36.5096 12.8768 36.6014 12.8768 36.6321 12.8768C36.7239 12.9384 36.8157 13 36.8769 13.0616C36.9381 13.1232 37.0605 13.1232 36.9993 13.2464C36.9075 13.4313 36.7545 13.5237 36.6321 13.4621C36.479 13.4004 36.3566 13.308 36.2648 13.1848C36.2648 13.1848 36.2036 13.1232 36.2648 13.0616C36.2648 13 36.4484 12.8459 36.5402 12.8459L36.5096 12.8768Z" fill="#BCCDE9"/>
<path d="M35.4079 11.2133C35.4997 11.2133 35.8058 11.4289 35.8364 11.4905C35.8364 11.6137 35.7752 11.7061 35.6833 11.7678C35.6221 11.8294 35.5609 11.891 35.4691 11.8294C35.3467 11.737 35.2243 11.6753 35.1325 11.5829C35.1325 11.5829 35.0713 11.5213 35.1325 11.4597C35.1937 11.3365 35.3161 11.2441 35.4385 11.2133H35.4079Z" fill="#BCCDE9"/>
<path d="M37.6726 13.8933C37.6726 14.1398 37.4889 14.2322 37.3053 14.1398C37.1217 14.0473 37.0911 14.0165 37.0299 13.9241C36.9687 13.8625 36.9075 13.8009 36.9381 13.7085C36.9993 13.6161 37.0911 13.5852 37.2135 13.5544C37.3053 13.5544 37.6419 13.8009 37.6726 13.8625V13.8933Z" fill="#BCCDE9"/>
<path d="M36.1424 11.7985C36.2342 11.7985 36.5708 12.0141 36.5708 12.1066C36.5708 12.199 36.479 12.3222 36.4178 12.3838C36.3566 12.4454 36.2954 12.4762 36.2036 12.3838C36.1118 12.2914 36.0199 12.2298 35.8975 12.1682C35.8057 12.1066 35.8057 12.0141 35.8975 11.9525C35.9893 11.8293 36.0505 11.7985 36.1424 11.7677V11.7985Z" fill="#BCCDE9"/>
<path d="M36.9381 12.4762C37.0299 12.4762 37.3665 12.6919 37.3665 12.7535C37.3665 12.8767 37.3053 12.9691 37.2135 13.0307C37.1523 13.0924 37.0911 13.1232 36.9993 13.0307C36.9075 12.9383 36.7851 12.8767 36.6932 12.8151C36.6014 12.7535 36.6014 12.6611 36.6932 12.5995C36.8157 12.507 36.8769 12.4454 36.9687 12.4454L36.9381 12.4762Z" fill="#BCCDE9"/>
<path d="M36.2648 11.0284C36.2036 11.1208 36.1424 11.2133 36.0506 11.2749C35.9588 11.3365 35.8976 11.3365 35.8057 11.2749C35.7445 11.2133 35.6833 11.1824 35.6221 11.1516C35.5303 11.09 35.4691 10.9976 35.5609 10.8744C35.6833 10.7512 35.8057 10.6587 35.9282 10.7512C36.02 10.8128 36.1118 10.8744 36.2036 10.936C36.2036 10.9668 36.2036 10.9668 36.2648 11.0284Z" fill="#BCCDE9"/>
<path d="M38.0704 13.4621C38.0704 13.5545 38.0704 13.647 37.948 13.6778C37.8562 13.7394 37.7644 13.6778 37.6725 13.6778C37.5807 13.6161 37.4889 13.5237 37.3971 13.4313C37.3053 13.3389 37.3359 13.2773 37.3971 13.2157C37.4889 13.1233 37.6113 13.0925 37.7338 13.2157C37.8256 13.2773 37.9174 13.3389 37.9786 13.4005C38.0398 13.4005 38.0704 13.4621 38.0398 13.5237L38.0704 13.4621Z" fill="#BCCDE9"/>
<path d="M36.9993 11.6137C36.9993 11.7061 36.9075 11.7985 36.785 11.8602C36.7238 11.8602 36.632 11.9218 36.5708 11.8602C36.5096 11.8602 36.4484 11.7677 36.4178 11.7369C36.2648 11.6137 36.2648 11.5521 36.3566 11.4289C36.479 11.2749 36.5402 11.2749 36.6932 11.3673C36.785 11.4289 36.8463 11.4597 36.9381 11.5213C36.9381 11.5213 36.9993 11.5521 36.9993 11.6137Z" fill="#BCCDE9"/>
<path d="M38.2234 13.2156C38.0398 13.154 37.8867 13.0308 37.7643 12.8768C37.7031 12.7843 37.7643 12.6919 37.8561 12.6303C37.9173 12.5687 37.9785 12.5687 38.0398 12.6303C38.1316 12.6919 38.254 12.7535 38.3458 12.8151C38.4682 12.8768 38.4682 12.9692 38.4376 13.0616C38.407 13.1848 38.3458 13.2156 38.2234 13.2464V13.2156Z" fill="#BCCDE9"/>
<path d="M37.795 12.2915C37.795 12.3839 37.7031 12.4763 37.5807 12.5379C37.4889 12.5995 37.4277 12.5379 37.3665 12.5379C37.3053 12.5379 37.2441 12.4455 37.2135 12.4147C37.1217 12.3223 37.0605 12.2298 37.1523 12.1066C37.2747 11.9526 37.3359 11.9526 37.4889 12.045C37.5807 12.1066 37.6419 12.1374 37.7338 12.199C37.7338 12.199 37.795 12.2606 37.795 12.3223V12.2915Z" fill="#BCCDE9"/>
<path d="M38.3764 12.1066C38.4988 12.1066 38.8355 12.3223 38.8661 12.4147C38.8967 12.5071 38.8661 12.5995 38.8049 12.6611C38.7437 12.7227 38.6824 12.7227 38.6212 12.6611C38.4988 12.5995 38.3764 12.5071 38.254 12.4147C38.1928 12.3531 38.1622 12.2914 38.1928 12.199C38.1928 12.1066 38.3152 12.0758 38.3764 12.0758V12.1066Z" fill="#BCCDE9"/>
<path d="M36.1424 10.2583C36.326 10.2583 36.5709 10.5356 36.5402 10.6588C36.5402 10.8128 36.3872 10.8744 36.2648 10.8128C36.173 10.8128 36.0812 10.6896 36.02 10.628C35.9588 10.5664 35.8976 10.5047 35.9282 10.4123C35.9588 10.2891 36.0506 10.2583 36.1424 10.2583Z" fill="#BCCDE9"/>
<path d="M36.9074 10.8127C37.0299 10.8127 37.0911 10.936 37.1829 10.9668C37.3053 11.0284 37.3359 11.1208 37.2747 11.244C37.2747 11.3672 37.1523 11.4289 37.0299 11.3672C36.8768 11.3056 36.7544 11.2132 36.6932 11.0592C36.6014 10.9668 36.6932 10.8127 36.9074 10.8127Z" fill="#BCCDE9"/>
<path d="M37.4889 11.7062C37.4889 11.6446 37.4889 11.583 37.5807 11.5522C37.6419 11.5522 37.7337 11.4906 37.7949 11.5522C37.8867 11.6138 37.9785 11.6754 38.0398 11.737C38.0398 11.737 38.1316 11.7986 38.101 11.891C38.101 11.9834 38.101 12.0759 37.9785 12.1067C37.8255 12.1067 37.4889 11.8602 37.4889 11.737V11.7062Z" fill="#BCCDE9"/>
<path opacity="0.2" d="M42.1407 44.6446V42.7962H42.4468V44.6446M42.1407 42.4882V40.6398H42.4468V42.4882M42.1407 40.3318V38.4834H42.4468V40.3318M42.1407 38.1754V36.327H42.4468V38.1754M42.1407 36.019V34.1706H42.4468V36.019M42.1407 33.8626V32.0142H42.4468V33.8626M42.1407 31.7062V29.8578H42.4468V31.7062M42.1407 29.5498V27.7014H42.4468V29.5498M42.1407 27.3934V25.545H42.4468V27.3934M42.1407 25.237V23.3886H42.4468V25.237M42.1407 23.0806V21.2322H42.4468V23.0806M42.1407 20.9242V19.0758H42.4468V20.9242M42.1407 18.7678V16.9194H42.4468V18.7678M42.1407 16.6114V14.763H42.4468V16.6114M42.1407 14.455V12.6066H42.4468V14.455M42.1407 12.2986V10.4502H42.4468V12.2986M42.1407 10.1422V8.29384H42.4468V10.1422M42.1407 7.98578V7H42.4468V7.98578" fill="white"/>
<g opacity="0.8">
<path d="M48.9958 15.1943V16.9502H52.6682V18.8602H46.7312V9.83411H52.5152V11.7441H48.9958V13.3152H52.4234V15.1943H48.9958Z" fill="white"/>
</g>
<g opacity="0.8">
<path d="M62.0635 18.8602H59.7376L59.1256 17.1042H55.7592L55.1471 18.8602H52.8825L56.2795 9.83411H58.6053L62.0635 18.8602ZM56.3713 15.2251H58.5747L57.473 12.0829L56.3713 15.2251Z" fill="white"/>
</g>
<g opacity="0.8">
<path d="M67.8475 18.8602L65.3992 15.7796H64.9402V18.8602H62.7061V9.83411H65.9807C66.6845 9.83411 67.2966 9.95733 67.8475 10.2038C68.3677 10.4502 68.7962 10.7891 69.0716 11.2512C69.347 11.7133 69.5 12.237 69.5 12.8223C69.5 13.4076 69.347 13.9313 69.0716 14.3933C68.7962 14.8246 68.3677 15.1943 67.8169 15.4099L70.5712 18.8294H67.8475V18.8602ZM64.9402 11.7441V13.9313H65.8583C66.2867 13.9313 66.6233 13.8388 66.8376 13.6232C67.0824 13.4076 67.1742 13.1611 67.1742 12.8531C67.1742 12.545 67.0518 12.2678 66.8376 12.0521C66.5927 11.8365 66.2867 11.7441 65.8583 11.7441H64.9402Z" fill="white"/>
</g>
<g opacity="0.8">
<path d="M74.5496 18.8602H72.3156V11.8673H70.1121V9.83411H76.7224V11.8673H74.5496V18.8602Z" fill="white"/>
</g>
<g opacity="0.8">
<path d="M82.9655 13.2535V9.86491H85.1995V18.891H82.9655V15.3175H79.7522V18.891H77.5181V9.83411H79.7522V13.2227H82.9655V13.2535Z" fill="white"/>
</g>
<g opacity="0.8">
<path d="M51.0157 30.8128C50.1588 30.8128 49.3631 30.628 48.6287 30.2275C47.8942 29.827 47.3127 29.3033 46.8537 28.564C46.4252 27.8555 46.211 27.0237 46.211 26.1303C46.211 25.237 46.4252 24.4052 46.8537 23.6967C47.2821 22.9882 47.8636 22.4337 48.6287 22.0332C49.3631 21.6327 50.1588 21.4479 51.0157 21.4479C51.8726 21.4479 52.6683 21.6327 53.4028 22.0332C54.1372 22.4337 54.7187 22.9882 55.1778 23.6967C55.6062 24.4052 55.8204 25.2062 55.8204 26.1303C55.8204 27.0545 55.6062 27.8555 55.1778 28.564C54.7493 29.2725 54.1678 29.827 53.4028 30.2275C52.6683 30.628 51.8726 30.8128 51.0157 30.8128ZM51.0157 28.7488C51.5054 28.7488 51.9338 28.6256 52.301 28.41C52.6989 28.1943 52.9743 27.8863 53.2191 27.4858C53.4334 27.0853 53.5558 26.6232 53.5558 26.1303C53.5558 25.6374 53.4334 25.1754 53.2191 24.7749C53.0049 24.3744 52.6989 24.0664 52.301 23.8507C51.9032 23.6351 51.4748 23.5119 51.0157 23.5119C50.5567 23.5119 50.0976 23.6351 49.7304 23.8507C49.3325 24.0664 49.0265 24.3744 48.8123 24.7749C48.5981 25.1754 48.4756 25.6066 48.4756 26.1303C48.4756 26.654 48.5981 27.0853 48.8123 27.4858C49.0265 27.8863 49.3325 28.1943 49.7304 28.41C50.0976 28.6564 50.5261 28.7488 51.0157 28.7488Z" fill="white"/>
</g>
<g opacity="0.8">
<path d="M62.2165 25.8223C62.7061 26.0071 63.0734 26.2843 63.3182 26.6232C63.5936 26.9929 63.716 27.4242 63.716 27.9171C63.716 28.718 63.41 29.3649 62.7979 29.8886C62.1859 30.3815 61.2984 30.6279 60.1048 30.6279H56.8609V21.6327H59.9824C61.0535 21.6327 61.8492 21.8483 62.4613 22.2796C63.0428 22.7109 63.3488 23.2962 63.3488 24.0663C63.3488 24.8365 63.257 24.8057 63.0428 25.1137C62.8285 25.391 62.5531 25.6374 62.2165 25.8223ZM59.0949 23.3886V25.2678H59.9212C60.2885 25.2678 60.5945 25.1753 60.8087 24.9905C61.0229 24.8057 61.1148 24.59 61.1148 24.3128C61.1148 24.0355 61.0229 23.8199 60.8087 23.6351C60.5945 23.4502 60.3191 23.3578 59.9212 23.3578H59.0949V23.3886ZM60.1967 28.9028C60.5945 28.9028 60.9005 28.8104 61.1148 28.6256C61.329 28.4407 61.4514 28.1943 61.4514 27.8862C61.4514 27.5782 61.329 27.3317 61.1148 27.1469C60.9005 26.9621 60.5945 26.8697 60.1967 26.8697H59.1255V28.9028H60.1967Z" fill="white"/>
</g>
<g opacity="0.8">
<path d="M67.7251 30.8128C66.654 30.8128 65.7971 30.5356 65.1544 30.0119C64.5117 29.4574 64.1751 28.6873 64.1751 27.7015H66.3785C66.3785 28.1019 66.501 28.4408 66.7458 28.6565C66.9906 28.8721 67.2966 28.9953 67.7251 28.9953C68.1535 28.9953 68.429 28.9337 68.6432 28.7489C68.8574 28.5948 68.9492 28.3792 68.9492 28.1328C68.9492 27.8863 68.8268 27.6091 68.5514 27.455C68.2759 27.301 67.8781 27.1162 67.2966 26.9313C66.6846 26.7465 66.1949 26.5617 65.8277 26.3768C65.4298 26.192 65.0932 25.9147 64.8178 25.5143C64.5424 25.1446 64.3893 24.6209 64.3893 24.0048C64.3893 23.3887 64.5117 23.0806 64.8178 22.6801C65.0932 22.2797 65.4911 21.9716 65.9807 21.756C66.4704 21.5403 67.0518 21.4171 67.6945 21.4171C68.3372 21.4171 68.8268 21.5095 69.3165 21.7252C69.8367 21.9408 70.2346 22.2797 70.5406 22.711C70.8466 23.1422 71.0302 23.6967 71.0302 24.3437H68.8574C68.8574 24.0356 68.735 23.7583 68.5514 23.5427C68.3678 23.3271 68.0617 23.2347 67.6945 23.2347C67.3272 23.2347 67.113 23.2963 66.9294 23.4503C66.7458 23.6043 66.654 23.7892 66.654 24.0356C66.654 24.282 66.7764 24.5593 67.0518 24.7133C67.3272 24.8674 67.7251 25.0214 68.3065 25.2062C68.9186 25.391 69.4083 25.5759 69.7755 25.7607C70.1733 25.9456 70.51 26.2228 70.7854 26.6233C71.0608 26.9929 71.2139 27.5166 71.2139 28.1328C71.2139 28.7489 71.0914 29.0569 70.816 29.4574C70.5406 29.8579 70.1427 30.1659 69.6225 30.4124C69.0716 30.6896 68.4596 30.8128 67.7251 30.8128Z" fill="white"/>
</g>
<g opacity="0.8">
<path d="M74.4272 26.9928V28.7488H78.0996V30.6587H72.1625V21.6635H77.9466V23.5734H74.4272V25.1137H77.8241V26.9928H74.4272Z" fill="white"/>
</g>
<g opacity="0.8">
<path d="M84.465 30.6587L82.0168 27.609H81.5577V30.6587H79.3237V21.6635H82.5982C83.3021 21.6635 83.9142 21.7867 84.465 22.0331C84.9853 22.2796 85.4137 22.6492 85.6892 23.0805C85.9952 23.5426 86.1176 24.0663 86.1176 24.6516C86.1176 25.2369 85.9646 25.7606 85.6892 26.2227C85.4137 26.654 84.9853 27.0236 84.465 27.2393L87.2193 30.6587H84.465ZM81.5577 23.5426V25.7298H82.4758C82.9043 25.7298 83.2409 25.6374 83.4551 25.4217C83.7 25.2061 83.8224 24.9597 83.8224 24.6208C83.8224 24.2819 83.7 24.0355 83.4551 23.8199C83.2103 23.6042 82.9043 23.5118 82.4758 23.5118H81.5577V23.5426Z" fill="white"/>
</g>
<g opacity="0.8">
<path d="M90.9835 27.609L92.9727 21.6327H95.3292L91.9934 30.6588H89.9124L86.5767 21.6635H88.9637L90.9835 27.609Z" fill="white"/>
</g>
<g opacity="0.8">
<path d="M104.204 30.6587H101.878L101.266 28.9028H97.8999L97.2878 30.6587H95.0232L98.4201 21.6635H100.777L104.204 30.6587ZM98.5119 26.9928H100.715L99.6137 23.8815L98.5119 26.9928Z" fill="white"/>
</g>
<g opacity="0.8">
<path d="M108.458 30.6587H106.224V23.6966H104.021V21.6635H110.631V23.6966H108.458V30.6587Z" fill="white"/>
</g>
<g opacity="0.8">
<path d="M113.722 30.6587H111.488V21.6635H113.722V30.6587Z" fill="white"/>
</g>
<g opacity="0.8">
<path d="M119.659 30.8128C118.802 30.8128 118.006 30.628 117.272 30.2275C116.537 29.827 115.956 29.3033 115.497 28.564C115.068 27.8555 114.854 27.0237 114.854 26.1303C114.854 25.237 115.068 24.4052 115.497 23.6967C115.925 22.9882 116.507 22.4337 117.272 22.0332C118.006 21.6327 118.802 21.4479 119.659 21.4479C120.516 21.4479 121.311 21.6327 122.046 22.0332C122.78 22.4337 123.362 22.9882 123.821 23.6967C124.249 24.4052 124.463 25.2062 124.463 26.1303C124.463 27.0545 124.249 27.8555 123.821 28.564C123.392 29.2725 122.811 29.827 122.046 30.2275C121.311 30.628 120.516 30.8128 119.659 30.8128ZM119.659 28.7488C120.148 28.7488 120.577 28.6256 120.944 28.41C121.342 28.1943 121.617 27.8863 121.862 27.4858C122.076 27.0853 122.199 26.6232 122.199 26.1303C122.199 25.6374 122.076 25.1754 121.862 24.7749C121.648 24.3744 121.342 24.0664 120.944 23.8507C120.546 23.6351 120.118 23.5119 119.659 23.5119C119.2 23.5119 118.741 23.6351 118.373 23.8507C117.976 24.0664 117.67 24.3744 117.455 24.7749C117.241 25.1754 117.119 25.6066 117.119 26.1303C117.119 26.654 117.241 27.0853 117.455 27.4858C117.67 27.8863 117.976 28.1943 118.373 28.41C118.741 28.6564 119.169 28.7488 119.659 28.7488Z" fill="white"/>
</g>
<g opacity="0.8">
<path d="M131.839 27.0545V21.6327H133.981V30.6279H132.42L127.677 25.2061V30.6279H125.535V21.6327H127.095L131.839 27.0545Z" fill="white"/>
</g>
<path d="M46.8231 40.8246H49.0571C50.6485 40.8246 51.4135 39.6848 51.4135 38.1753C51.4135 36.6658 50.4036 35.5876 49.0571 35.5876H46.8537V40.8246H46.8231ZM47.9554 39.8696V36.5426H48.7511C49.8834 36.5426 50.2506 37.2203 50.2506 38.2677C50.2506 39.3151 49.608 39.8388 48.9347 39.8388H47.9554V39.8696Z" fill="#4C72BA"/>
<path d="M54.6575 40.8247H55.851L56.31 39.654H58.4523L58.9113 40.8247H60.1048L57.9014 35.5569H56.8609L54.6575 40.8247ZM56.7079 38.6066L57.3812 36.9123L58.0544 38.6066H56.7079Z" fill="#4C72BA"/>
<path d="M64.8484 40.8246H65.9501V36.6042H67.4497V35.5876H63.3488V36.6042H64.8484V40.8246Z" fill="#4C72BA"/>
<path d="M70.6936 40.8247H71.8871L72.3462 39.654H74.4884L74.9475 40.8247H76.141L73.9376 35.5569H72.897L70.6936 40.8247ZM72.744 38.6066L73.4173 36.9123L74.0906 38.6066H72.744Z" fill="#4C72BA"/>
<path d="M83.9448 40.8247H85.0465V38.6991H87.4336V40.8247H88.5353V35.5569H87.4336V37.6517H85.0465V35.5569H83.9448V40.8247Z" fill="#4C72BA"/>
<path d="M93.9827 40.9171C95.3292 40.9171 96.1861 40.2394 96.1861 38.7915V35.5569H95.0844V38.7915C95.0844 39.5924 94.809 39.9313 94.0133 39.9313C93.2176 39.9313 92.9422 39.3768 92.9422 38.7915V35.5569H91.8405V38.7915C91.8405 40.2394 92.6055 40.9171 93.9827 40.9171Z" fill="#4C72BA"/>
<path d="M99.4301 40.8246H102.093C103.041 40.8246 103.929 40.3625 103.929 39.3151C103.929 38.2677 103.623 38.1753 102.98 37.9905C103.439 37.7749 103.684 37.436 103.684 36.8815C103.684 35.8957 103.011 35.5876 102.031 35.5876H99.4607V40.8246H99.4301ZM100.532 39.9313V38.4834H101.94C102.429 38.4834 102.766 38.699 102.766 39.2227C102.766 39.7464 102.368 39.9004 101.909 39.9004H100.532V39.9313ZM100.532 37.7132V36.481H101.756C102.154 36.481 102.552 36.6042 102.552 37.0971C102.552 37.59 102.246 37.7132 101.848 37.7132H100.532Z" fill="#4C72BA"/>
<mask id="mask0_989908_6441" style="mask-type:luminance" maskUnits="userSpaceOnUse" x="4" y="11" width="33" height="33">
<path d="M36.6628 11.0048H4.25391V43.4431H36.6628V11.0048Z" fill="white"/>
</mask>
<g mask="url(#mask0_989908_6441)">
<path d="M36.571 27.0853C36.571 27.609 36.571 28.1327 36.5098 28.6564C36.4485 29.1801 36.3873 29.7038 36.2649 30.1966C36.1731 30.7203 36.0201 31.2132 35.8671 31.7061C35.7141 32.199 35.5304 32.6919 35.3468 33.1848C35.1326 33.6777 34.9184 34.1398 34.6736 34.6019C34.4287 35.0639 34.1533 35.526 33.8779 35.9573C33.5718 36.3886 33.2658 36.8199 32.9292 37.2203C32.5925 37.6208 32.2559 38.0213 31.8581 38.391C31.4908 38.7606 31.093 39.0995 30.6951 39.4384C30.2973 39.7772 29.8688 40.0853 29.4404 40.3625C29.012 40.6398 28.5529 40.917 28.0939 41.1635C27.6348 41.4099 27.1452 41.6256 26.6555 41.8412C26.1659 42.0568 25.6762 42.2109 25.1865 42.3649C24.6969 42.5189 24.1766 42.6421 23.6564 42.7346C23.1361 42.827 22.6159 42.9194 22.0956 42.981C21.5754 43.0426 21.0551 43.0426 20.5349 43.0426C20.0146 43.0426 19.4943 43.0118 18.9741 42.981C18.4538 42.9194 17.9336 42.8578 17.4133 42.7346C16.8931 42.6421 16.4034 42.5189 15.8832 42.3649C15.3935 42.2109 14.8732 42.026 14.4142 41.8412C13.9245 41.6256 13.4655 41.4099 12.9758 41.1635C12.5168 40.917 12.0577 40.6398 11.6293 40.3625C11.2009 40.0853 10.7724 39.7464 10.3746 39.4384C9.97673 39.0995 9.57888 38.7606 9.21165 38.391C8.84441 38.0213 8.47717 37.6208 8.14053 37.2203C7.80389 36.8199 7.49786 36.3886 7.19183 35.9573C6.8858 35.526 6.64097 35.0639 6.36554 34.6019C6.12072 34.1398 5.90649 33.6777 5.69227 33.1848C5.47805 32.6919 5.32503 32.199 5.17201 31.7061C5.019 31.2132 4.89659 30.6895 4.80478 30.1966C4.71297 29.673 4.62116 29.1801 4.55995 28.6564C4.49874 28.1327 4.46814 27.609 4.46814 27.0853C4.46814 26.5616 4.49874 26.0379 4.55995 25.5142C4.62116 24.9905 4.68236 24.4668 4.80478 23.9739C4.89659 23.4502 5.0496 22.9573 5.17201 22.4644C5.32503 21.9715 5.50865 21.4786 5.69227 20.9858C5.90649 20.4929 6.12072 20.0308 6.36554 19.5687C6.61037 19.1066 6.8858 18.6445 7.19183 18.2132C7.49786 17.782 7.80389 17.3507 8.14053 16.9502C8.47717 16.5497 8.8138 16.1493 9.21165 15.7796C9.57888 15.4099 9.97673 15.0711 10.3746 14.7322C10.7724 14.3933 11.2009 14.0853 11.6293 13.808C12.0577 13.5308 12.5168 13.2535 12.9758 13.0071C13.4349 12.7606 13.9245 12.545 14.4142 12.3294C14.9039 12.1137 15.3935 11.9597 15.8832 11.8057C16.3728 11.6516 16.8931 11.5284 17.4133 11.436C17.9336 11.3436 18.4538 11.2512 18.9741 11.1895C19.4943 11.1279 20.0146 11.1279 20.5349 11.1279C21.0551 11.1279 21.5754 11.1279 22.0956 11.1895C22.6159 11.2512 23.1361 11.3128 23.6564 11.436C24.1766 11.5284 24.6663 11.6516 25.1865 11.8057C25.6762 11.9597 26.1965 12.1445 26.6555 12.3294C27.1452 12.545 27.6042 12.7606 28.0939 13.0071C28.5529 13.2535 29.012 13.5308 29.4404 13.808C29.8688 14.0853 30.2973 14.4241 30.6951 14.7322C31.093 15.0403 31.4908 15.4099 31.8581 15.7796C32.2253 16.1493 32.5925 16.5497 32.9292 16.9502C33.2658 17.3507 33.5718 17.782 33.8779 18.2132C34.1839 18.6445 34.4287 19.1066 34.6736 19.5687C34.9184 20.0308 35.1326 20.4929 35.3468 20.9858C35.5611 21.4786 35.7141 21.9715 35.8671 22.4644C36.0201 22.9573 36.1425 23.481 36.2649 23.9739C36.3567 24.4976 36.4485 24.9905 36.5098 25.5142C36.571 26.0379 36.571 26.5616 36.571 27.0853Z" fill="#2A3559"/>
</g>
<mask id="mask1_989908_6441" style="mask-type:luminance" maskUnits="userSpaceOnUse" x="4" y="11" width="33" height="33">
<path d="M36.6628 11.0048H4.25391V43.0427H36.6628V11.0048Z" fill="white"/>
</mask>
<g mask="url(#mask1_989908_6441)">
<path fill-rule="evenodd" clip-rule="evenodd" d="M15.975 21.0166C17.3521 21.4479 14.4142 22.865 15.3629 21.91C15.6077 21.602 15.2711 21.2015 15.8832 21.1399V21.0783L15.975 21.0166ZM13.4349 15.4716C14.4142 15.1636 14.506 14.6707 15.5159 14.2086C15.7301 13.7157 16.1892 13.5309 16.587 13.2844C15.6995 13.4384 16.4034 12.6067 15.4853 13.2844C15.8831 12.6067 14.2612 13.0688 15.3935 13.038C14.8426 13.6849 13.6491 14.7015 12.731 15.2252C12.578 15.102 13.8633 14.0238 12.731 14.9479C12.3638 15.5948 11.2621 15.8105 12.0271 15.0403C12.578 14.7631 12.3638 14.0854 12.7922 14.455C13.4961 14.147 13.3431 14.0854 14.0164 13.7157C13.4349 13.5925 12.7004 14.2086 12.0883 14.3626C13.6797 13.0688 11.0784 14.147 10.7724 14.9171C10.1909 15.5024 8.8138 16.7039 10.1603 15.6565C10.497 15.8413 12.1802 13.8389 11.9965 14.8863C11.6293 15.2252 11.4763 15.5332 11.0478 15.7489C10.344 16.4882 12.4556 15.0711 11.1396 16.1493C10.2828 16.7347 10.4052 17.8437 9.54828 18.3982C8.99742 18.583 8.8444 20.0309 8.69138 19.5072C7.9263 18.7986 10.2828 18.1825 8.93621 18.2441C8.8444 17.9669 8.75259 18.6446 8.47716 18.2441C8.10992 18.737 8.56897 19.4148 7.83449 19.2915C7.16122 19.2915 8.72199 18.5214 7.49786 18.737C7.34484 18.6754 7.03881 19.1991 6.73278 19.5996C5.84528 20.2465 5.56985 21.2323 5.23322 22.3105C4.25391 25.4835 4.28452 29.7347 5.53925 32.7228C8.32415 39.3152 14.3224 43.2892 21.2081 42.9811C20.5654 42.7039 19.0965 41.7797 20.443 41.1944C19.678 40.6399 20.0452 39.8389 18.9741 39.3152C19.678 38.6991 19.1271 37.8366 18.2396 38.0214C17.4745 38.1446 17.0461 37.1896 16.2198 37.5901C15.0875 37.6517 13.8327 37.2512 12.7922 36.7275C11.8129 35.7726 10.7418 34.602 10.803 33.2773C11.0478 32.5688 11.2315 32.1067 11.0478 31.429C11.8741 30.6896 12.2414 29.519 13.3431 29.5498C13.1289 28.5948 15.7913 27.5166 14.0164 27.455C14.0164 26.5309 14.1082 26.2536 14.4754 25.3602C14.353 23.7892 16.0668 25.7607 16.4646 24.8674C17.2909 23.9432 14.9957 22.8958 16.8012 23.173C17.4745 23.173 17.7193 22.5569 16.8012 22.8342C16.0974 22.7726 15.4853 22.9574 16.3728 22.3721C15.6689 22.1565 17.1991 21.8792 16.434 21.3863C16.434 21.1091 16.74 20.9858 16.3728 21.0166C16.1892 20.7394 16.9237 20.4005 16.281 20.2465C16.6176 19.2607 16.587 20.0617 16.8012 19.9384C17.0767 19.8768 17.4133 20.2465 16.9849 20.647C17.3827 21.3555 17.8724 22.1565 17.6275 22.6493C18.0254 22.3105 18.8211 22.064 19.0353 21.756C18.4538 20.6162 20.2288 20.0925 19.4331 21.1091C19.0965 21.8484 20.0146 21.756 19.4331 21.2939C19.9228 21.4171 20.2288 20.8934 19.8004 20.3697C19.7392 19.6304 18.8823 21.0166 18.6986 20.1233C18.1478 18.7986 20.1676 18.583 20.3818 17.4432C19.8922 17.5356 21.5141 15.9337 22.218 16.7039C22.9831 16.7039 24.5133 17.6896 22.9219 17.5048C22.9831 17.4432 23.1667 18.3674 23.7176 18.2441C24.3296 18.3982 23.2891 17.8129 23.84 17.8437C23.7176 17.4124 24.2378 17.1043 23.687 16.7347C24.6051 16.6114 23.84 17.1043 24.4521 17.3816C25.0947 17.8129 24.0848 15.9029 25.0029 16.6422C26.1658 15.41 23.6258 16.5498 23.5952 15.4408C23.0749 14.5783 23.9012 13.9313 23.9012 15.1328C24.1154 15.9953 25.1253 15.7489 25.7986 15.8721C26.1046 15.9337 24.2072 15.0403 24.8193 14.7631C25.2477 14.6091 25.4314 14.7631 25.1559 14.4858C24.9723 14.1778 24.6051 13.7773 24.4215 13.4693C23.2585 12.8223 25.8292 13.4693 24.9723 12.7915C24.5745 12.7915 25.2783 12.1138 24.299 12.2678C23.6258 12.7299 22.3404 11.5285 23.687 12.2062C24.7275 12.2986 22.6159 11.3129 22.0956 11.2512C20.443 11.0664 19.1577 11.2512 17.5357 11.4361C16.6482 11.5593 16.8012 12.1754 17.4745 12.0522C17.2909 12.5759 16.4034 12.4219 17.3521 12.4835C16.74 12.7299 18.5762 12.8223 17.7499 13.346C18.2396 13.5925 19.0353 13.9621 18.4844 14.0546C19.5555 14.0546 17.7193 14.9171 17.6887 15.3484C16.9543 15.6257 16.3422 16.3958 16.0668 16.1185C16.6176 16.519 15.5465 16.6114 15.2711 16.4574C14.5672 16.211 13.5267 16.9195 12.8228 17.4124C11.5987 18.1517 12.4556 15.8721 13.4043 15.4408L13.4349 15.4716ZM28.3387 40.7015C28.7365 39.8697 29.471 39.3152 30.2667 38.6991C31.246 38.3294 29.5934 40.1162 29.0426 40.3318C28.8283 40.4858 28.6141 40.6399 28.3387 40.7015ZM28.5223 39.5309C28.4305 40.7323 26.7167 40.7631 26.1658 41.6257C25.615 41.9029 24.4521 42.673 25.8292 42.1802C29.3792 40.8863 31.246 39.0072 32.4089 37.8366C35.0102 35.1257 36.6628 31.0593 36.5709 26.5925C36.4485 26.2536 35.8365 23.4195 35.7447 24.7749C35.7447 26.2228 35.7447 27.6399 35.8059 29.0569C35.408 30.9669 34.8266 26.8389 34.7042 27.8863C34.2757 27.7939 34.2451 27.5783 33.7248 27.301C33.3576 27.8863 32.5007 28.5948 31.9805 28.1636C31.6132 29.2726 30.6951 28.3176 30.3279 28.0403C29.4404 28.8105 31.5826 29.6422 31.8274 29.0569C32.1029 28.1944 31.9499 28.3792 32.4701 28.6873C33.1434 28.8413 32.5925 30.1659 32.3783 30.7512C31.8274 31.5214 31.5214 32.5996 30.6033 33.2157C30.0831 33.9242 29.3792 34.2939 29.3792 33.0309C28.7365 32.1067 27.9408 31.8911 27.4206 30.8437C27.3594 30.0735 26.7167 29.8579 26.5331 30.32C26.1046 30.0427 27.2064 31.583 27.4512 31.7986C27.849 32.9693 28.6141 33.7702 29.7464 34.1091C29.8382 35.6802 32.2559 31.7062 31.6438 33.7394C31.2154 35.2797 30.0219 36.3579 29.1956 37.6825C28.7671 38.2986 28.1245 38.9456 28.5223 39.5309ZM26.1658 39.1304C26.6861 39.1612 27.3594 38.2678 26.7167 38.3294C26.2883 38.3603 26.2883 38.8531 26.1658 39.1304ZM20.3818 14.6091C20.8103 13.9929 21.2081 14.7015 20.7797 14.7631C21.2693 15.3176 20.3512 14.5783 20.4736 15.4716C20.3512 15.41 19.7086 14.0238 20.3818 14.6091ZM21.3611 18.1209C21.4529 18.737 20.2288 19.1683 21.2693 19.6304C21.1775 20.2773 20.6573 21.3863 20.137 21.3863C19.4025 21.91 21.0245 21.8484 21.2693 21.4479C21.8508 21.6944 21.7284 21.1707 21.8508 20.8626C21.606 20.1233 22.7077 20.9242 22.0956 20.0617C21.4529 20.6162 22.4935 19.4456 22.9219 19.6304C22.7383 19.1375 21.3917 20.4005 21.606 19.3839C20.7185 18.7986 23.0137 17.7512 21.3611 18.1209ZM24.3296 24.1588C24.3909 24.4977 24.2378 25.083 23.9624 25.5143C24.6051 26.3152 25.921 24.8982 26.9003 25.5143C28.1245 24.7441 25.462 23.6043 25.2171 24.8366C24.6969 24.4361 25.5232 23.8816 24.6969 24.0048C24.5133 23.9432 24.5133 23.6043 24.3296 24.1588ZM29.2874 25.6067C30.1137 26.0688 31.0012 25.2062 29.9913 24.6825C29.5628 24.128 29.4404 23.6659 28.8283 23.4195C28.5223 23.2963 29.471 21.9716 28.4611 22.5877C27.7572 22.9266 28.0938 23.8816 28.4611 24.1896C29.471 24.7749 29.3486 24.4053 29.2568 25.6067H29.2874ZM19.2189 27.301C18.5456 27.7323 18.6068 26.6849 18.8823 26.3768C18.8211 26.038 19.4331 25.1446 19.2189 26.1612C19.0353 26.4693 19.4331 26.9313 19.2189 27.301ZM15.0569 27.6707C15.5159 28.8105 17.7193 27.5166 18.8517 28.1328C19.4025 27.9171 19.7698 28.0403 19.5555 28.6565C18.7599 28.9337 19.8004 29.365 20.0758 29.3034C20.8409 29.3958 21.0245 30.1043 21.8814 30.1967C22.5547 30.3816 22.065 28.6873 23.2279 29.2418C23.4728 29.6422 24.0236 29.4266 24.4827 29.5498C25.2477 29.8271 25.6456 28.8721 26.4107 28.9953C26.6555 28.41 26.5943 26.6541 26.5025 26.9313C26.0434 27.3318 25.309 27.3626 24.7275 27.6707C24.4215 27.4242 24.1154 27.9479 24.0236 27.147C23.8094 26.6849 23.7788 25.8839 22.9219 26.6541C22.6771 26.7157 23.687 27.2702 23.5034 27.5783C22.9831 27.2394 23.0443 27.5166 22.9525 27.9787C22.4628 27.7015 22.0956 26.4076 21.4223 25.8531C20.6879 25.5143 20.6267 24.8057 20.137 24.6825C19.7392 25.7299 21.8814 26.4384 21.5448 26.7465C20.6879 26.2228 21.9426 27.7323 20.8103 27.7015C20.8103 28.5024 19.2801 27.1778 20.6267 27.5783C21.606 26.9929 19.8616 26.3152 19.5249 25.7607C19.2189 24.5285 18.4232 26.3768 17.8112 25.3602C17.7499 25.9148 16.4646 26.3152 16.587 27.147C16.128 27.5475 15.7301 27.7015 15.0569 27.6707ZM15.2711 17.628C15.2711 17.628 15.8219 16.7347 15.7607 17.2584C17.0155 17.4124 15.6995 18.6138 15.0263 17.8129L15.2711 17.628Z" fill="#BDCFEB"/>
</g>
</svg>
