<svg width="127" height="85" viewBox="0 0 127 85" fill="none" xmlns="http://www.w3.org/2000/svg">
<path d="M9.05764 75.4852H117.937V73.7402H9.05764V75.4852ZM106.499 47.2268V71H111.063V38.7689H95.5603V67.0917H97.5176C98.2736 67.0917 98.8903 67.7073 98.8903 68.4621V70.9995H103.754V47.2263L106.499 47.2268ZM23.2352 47.2268V71H28.1899V68.4626C28.1899 67.7079 28.8065 67.0923 29.5626 67.0923H31.5198V38.7694H15.927V71.0005H20.4903V47.2274L23.2352 47.2268ZM102.302 23.0042H120.2C120.957 23.0042 121.573 23.6198 121.573 24.3745V27.8004C121.573 28.5552 120.957 29.1708 120.2 29.1708H118.115V37.4037C118.115 38.1585 117.498 38.7741 116.742 38.7741H113.809V71.0052H119.31C120.066 71.0052 120.683 71.6208 120.683 72.3756V75.491H125.525C126.281 75.491 126.898 76.1066 126.898 76.8614V83.0173C126.898 83.7721 126.281 84.3877 125.525 84.3877H1.47593C0.719855 84.3877 0.103199 83.7721 0.103199 83.0173V76.8614C0.103199 76.1066 0.719855 75.491 1.47593 75.491H6.31259V72.3756C6.31259 71.6208 6.92925 71.0052 7.68532 71.0052H13.1869V38.7741H10.2538C9.49776 38.7741 8.8811 38.1585 8.8811 37.4037V29.1708H6.88104C6.12497 29.1708 5.50831 28.5552 5.50831 27.8004V24.3745C5.50831 23.6198 6.12497 23.0042 6.88104 23.0042H24.78V21.7997C24.78 21.0449 25.3967 20.4294 26.1528 20.4294H28.6033V16.3556C28.6033 15.7561 28.9948 15.2422 29.5364 15.0549L62.9801 0.183606C63.3501 0.0176682 63.7523 0.0337152 64.0955 0.183606L97.6573 15.1028C98.1667 15.3277 98.467 15.8255 98.467 16.3501L98.4723 20.4238H100.928C101.684 20.4238 102.301 21.0394 102.301 21.7942L102.302 23.0042ZM118.828 25.7449H102.302V26.4247H118.828V25.7449ZM24.7795 25.7449H8.25322V26.4247H24.7795V25.7449ZM97.7701 36.028H115.369V29.1708H102.306V30.7768C102.306 31.5315 101.69 32.1471 100.933 32.1471H98.8958V34.6792C98.8958 35.3483 98.4132 35.9104 97.7751 36.0281L97.7701 36.028ZM24.7795 29.1708H11.6207V36.028H29.311C28.6729 35.9102 28.1903 35.3482 28.1903 34.6791V32.147H26.1526C25.3965 32.147 24.7799 31.5314 24.7799 30.7766L24.7795 29.1708ZM92.8146 67.0972V36.0556H87.4041V67.0972H92.8146ZM84.6587 67.0972V36.0556H82.7014C81.9454 36.0556 81.3287 35.44 81.3287 34.6852V32.1532H72.3309V34.6852C72.3309 35.44 71.7142 36.0556 70.9582 36.0556H69.0009V67.0972H70.9582C71.7142 67.0972 72.3309 67.7128 72.3309 68.4676V71.0049H81.3287V68.4676C81.3287 67.7128 81.9454 67.0972 82.7014 67.0972H84.6587ZM66.2504 67.0972V36.0556H60.8346V67.0972H66.2504ZM58.0891 67.0972V36.0556H56.1319C55.3758 36.0556 54.7592 35.44 54.7592 34.6852V32.1532H45.7613V34.6852C45.7613 35.44 45.1447 36.0556 44.3886 36.0556H42.4314V67.0972H44.3886C45.1447 67.0972 45.7613 67.7128 45.7613 68.4676V71.0049H54.7592V68.4676C54.7592 67.7128 55.3758 67.0972 56.1319 67.0972H58.0891ZM39.6808 67.0972V36.0556H34.2704V67.0972H39.6808ZM96.1452 71.0049V69.8433H84.0695V71.0049H96.1452ZM69.5802 71.0049V69.8433H57.5045V71.0049H69.5802ZM43.0111 71.0049V69.8433H30.9353V71.0049H43.0111ZM84.0694 32.1522V33.3138H96.1451V32.1522H84.0694ZM57.5043 32.1522V33.3138H69.5801V32.1522H57.5043ZM30.9352 32.1522V33.3138H43.0109V32.1522H30.9352ZM95.7266 20.4344V17.2441L63.5375 2.93055L31.3484 17.2441V20.4344H95.7266ZM99.5552 23.1752H27.5241V29.4061H99.5552V23.1752ZM124.146 78.2312H2.84248V81.6411H124.146V78.2312Z" fill="#4C72BA"/>
</svg>
