<svg width="18" height="18" viewBox="0 0 18 18" fill="none" xmlns="http://www.w3.org/2000/svg">
<path fill-rule="evenodd" clip-rule="evenodd" d="M8.85 1.85002C4.90116 1.85002 1.7 5.05119 1.7 9.00002C1.7 12.9489 4.90116 16.15 8.85 16.15C12.7988 16.15 16 12.9489 16 9.00002C16 5.05119 12.7988 1.85002 8.85 1.85002ZM0 9.00002C0 4.1123 3.96228 0.150024 8.85 0.150024C13.7377 0.150024 17.7 4.1123 17.7 9.00002C17.7 13.8877 13.7377 17.85 8.85 17.85C3.96228 17.85 0 13.8877 0 9.00002Z" fill="white" fill-opacity="0.9"/>
<path d="M9 1.15002C13.4183 1.15002 17 4.73175 17 9.15002C17 13.5683 13.4183 17.15 9 17.15V1.15002Z" fill="white" fill-opacity="0.9"/>
</svg>
